{
  "source": "C:\\Users\\Peter\\Desktop\\stuff\\MIUN\\quantitative_research\\video_compression\\videos\\BVI-HD\\BVI-HD_CDVL_videos\\ORIG\\MartialArts_1920x1080_60fps.mp4",
  "output": "C:\\Users\\Peter\\Desktop\\stuff\\MIUN\\quantitative_research\\video_compression\\compressed_videos\\BVI-HD\\hevc\\3\\MartialArts_1920x1080_60fps_hevc.mp4",
  "codec": "hevc",
  "ok": "Input #0, mov,mp4,m4a,3gp,3g2,mj2, from 'C:\\Users\\Peter\\Desktop\\stuff\\MIUN\\quantitative_research\\video_compression\\videos\\BVI-HD\\BVI-HD_CDVL_videos\\ORIG\\MartialArts_1920x1080_60fps.mp4':\n  Metadata:\n    major_brand     : isom\n    minor_version   : 512\n    compatible_brands: isomiso2avc1mp41\n    encoder         : Lavf54.28.101\n  Duration: 00:00:05.00, start: 0.000000, bitrate: 120609 kb/s\n  Stream #0:0[0x1](und): Video: h264 (High 4:4:4 Predictive) (avc1 / 0x31637661), yuv420p(progressive), 1920x1080, 120605 kb/s, 60 fps, 60 tbr, 60 tbn (default)\n    Metadata:\n      handler_name    : VideoHandler\n      vendor_id       : [0][0][0][0]\n[out#0/mp4 @ 00000293b1bbabc0] Codec AVOption b:a (set bitrate (in bits/s)) has not been used for any stream. The most likely reason is either wrong type (e.g. a video option with no video streams) or that it is a private option of some decoder which was not actually used for any stream.\nStream mapping:\n  Stream #0:0 -> #0:0 (h264 (native) -> hevc (libx265))\nPress [q] to stop, [?] for help\n[libx265 @ 00000293b2190940] Unknown option: \"aq-mode.\nx265 [info]: HEVC encoder version 4.1+190-8f11c33ac\nx265 [info]: build info [Windows][GCC 15.1.0][64 bit] 10bit\nx265 [info]: using cpu capabilities: MMX2 SSE2Fast LZCNT SSSE3 SSE4.2 AVX FMA3 BMI2 AVX2\nx265 [info]: Main 10 profile, Level-4.1 (Main tier)\nx265 [info]: Thread pool created using 12 threads\nx265 [info]: Slices                              : 1\nx265 [info]: frame threads / pool features       : 3 / wpp(17 rows)\nx265 [info]: Coding QT: max CU size, min CU size : 64 / 8\nx265 [info]: Residual QT: max TU size, max depth : 32 / 1 inter / 1 intra\nx265 [info]: ME / range / subpel / merge         : star / 57 / 3 / 3\nx265 [info]: Keyframe min / max / scenecut / bias  : 25 / 250 / 40 / 5.00 \nx265 [info]: Lookahead / bframes / badapt        : 25 / 4 / 2\nx265 [info]: b-pyramid / weightp / weightb       : 1 / 1 / 0\nx265 [info]: References / ref-limit  cu / depth  : 4 / on / on\nx265 [info]: AQ: mode / str / qg-size / cu-tree  : 2 / 1.0 / 32 / 1\nx265 [info]: Rate Control / qCompress            : ABR-3000 kbps / 0.60\nx265 [info]: VBV/HRD buffer / max-rate / init    : 3000 / 3000 / 0.750\nx265 [info]: tools: rect limit-modes rd=4 psy-rd=2.00 rdoq=2 psy-rdoq=1.00\nx265 [info]: tools: rskip mode=1 signhide tmvp strong-intra-smoothing lslices=4\nx265 [info]: tools: deblock sao dhdr10-info\nOutput #0, mp4, to 'C:\\Users\\Peter\\Desktop\\stuff\\MIUN\\quantitative_research\\video_compression\\compressed_videos\\BVI-HD\\hevc\\3\\MartialArts_1920x1080_60fps_hevc.mp4':\n  Metadata:\n    major_brand     : isom\n    minor_version   : 512\n    compatible_brands: isomiso2avc1mp41\n    encoder         : Lavf62.3.100\n  Stream #0:0(und): Video: hevc (hev1 / 0x31766568), yuv420p10le(tv, progressive), 1920x1080, q=2-31, 3000 kb/s, 60 fps, 15360 tbn (default)\n    Metadata:\n      encoder         : Lavc62.11.100 libx265\n      handler_name    : VideoHandler\n      vendor_id       : [0][0][0][0]\n    Side data:\n      cpb: bitrate max/min/avg: 3000000/0/3000000 buffer size: 3000000 vbv_delay: N/A\nframe=    0 fps=0.0 q=0.0 size=       0KiB time=N/A bitrate=N/A speed=N/A elapsed=0:00:00.51    \nframe=    0 fps=0.0 q=0.0 size=       0KiB time=N/A bitrate=N/A speed=N/A elapsed=0:00:01.02    \nframe=    0 fps=0.0 q=0.0 size=       0KiB time=N/A bitrate=N/A speed=N/A elapsed=0:00:01.53    \nframe=    0 fps=0.0 q=0.0 size=       0KiB time=N/A bitrate=N/A speed=N/A elapsed=0:00:02.08    \nframe=    0 fps=0.0 q=0.0 size=       0KiB time=N/A bitrate=N/A speed=N/A elapsed=0:00:02.59    \nframe=    0 fps=0.0 q=0.0 size=       0KiB time=N/A bitrate=N/A speed=N/A elapsed=0:00:03.12    \nframe=    0 fps=0.0 q=0.0 size=       0KiB time=N/A bitrate=N/A speed=N/A elapsed=0:00:03.65    \nframe=    0 fps=0.0 q=0.0 size=       0KiB time=N/A bitrate=N/A speed=N/A elapsed=0:00:04.16    \nframe=    0 fps=0.0 q=0.0 size=       0KiB time=N/A bitrate=N/A speed=N/A elapsed=0:00:04.68    \nframe=    1 fps=0.2 q=33.1 size=       0KiB time=-00:00:00.01 bitrate=N/A speed=N/A elapsed=0:00:05.20    \nframe=    2 fps=0.4 q=37.0 size=       0KiB time=00:00:00.00 bitrate=N/A speed=   0x elapsed=0:00:05.70    \nframe=    4 fps=0.6 q=36.2 size=       0KiB time=00:00:00.03 bitrate=  10.6kbits/s speed=0.00533x elapsed=0:00:06.25    \nframe=    5 fps=0.7 q=35.8 size=       0KiB time=00:00:00.05 bitrate=   7.0kbits/s speed=0.0074x elapsed=0:00:06.75    \nframe=    5 fps=0.7 q=35.8 size=       0KiB time=00:00:00.05 bitrate=   7.0kbits/s speed=0.00683x elapsed=0:00:07.32    \nframe=    6 fps=0.8 q=36.3 size=       0KiB time=00:00:00.06 bitrate=   5.3kbits/s speed=0.00848x elapsed=0:00:07.86    \nframe=    6 fps=0.7 q=36.3 size=       0KiB time=00:00:00.06 bitrate=   5.3kbits/s speed=0.00794x elapsed=0:00:08.39    \nframe=    7 fps=0.8 q=30.9 size=       0KiB time=00:00:00.08 bitrate=   4.2kbits/s speed=0.00935x elapsed=0:00:08.91    \nframe=    8 fps=0.8 q=32.7 size=       0KiB time=00:00:00.10 bitrate=   3.5kbits/s speed=0.0106x elapsed=0:00:09.42    \nframe=    8 fps=0.8 q=32.7 size=       0KiB time=00:00:00.10 bitrate=   3.5kbits/s speed=0.01x elapsed=0:00:09.95    \nframe=    8 fps=0.8 q=32.7 size=       0KiB time=00:00:00.10 bitrate=   3.5kbits/s speed=0.00954x elapsed=0:00:10.48    \nframe=    9 fps=0.8 q=34.5 size=       0KiB time=00:00:00.11 bitrate=   3.0kbits/s speed=0.0106x elapsed=0:00:11.01    \nframe=    9 fps=0.8 q=34.5 size=       0KiB time=00:00:00.11 bitrate=   3.0kbits/s speed=0.0101x elapsed=0:00:11.53    \nframe=   10 fps=0.8 q=30.7 size=       0KiB time=00:00:00.13 bitrate=   2.6kbits/s speed=0.0111x elapsed=0:00:12.05    \nframe=   10 fps=0.8 q=30.7 size=       0KiB time=00:00:00.13 bitrate=   2.6kbits/s speed=0.0106x elapsed=0:00:12.57    \nframe=   12 fps=0.9 q=25.6 size=       0KiB time=00:00:00.16 bitrate=   2.1kbits/s speed=0.0127x elapsed=0:00:13.08    \nframe=   13 fps=1.0 q=30.2 size=       0KiB time=00:00:00.18 bitrate=   1.9kbits/s speed=0.0135x elapsed=0:00:13.61    \nframe=   14 fps=1.0 q=29.3 size=       0KiB time=00:00:00.20 bitrate=   1.8kbits/s speed=0.0142x elapsed=0:00:14.12    \nframe=   14 fps=1.0 q=29.3 size=       0KiB time=00:00:00.20 bitrate=   1.8kbits/s speed=0.0137x elapsed=0:00:14.63    \nframe=   14 fps=0.9 q=29.3 size=       0KiB time=00:00:00.20 bitrate=   1.8kbits/s speed=0.0132x elapsed=0:00:15.14    \nframe=   15 fps=1.0 q=31.1 size=       0KiB time=00:00:00.21 bitrate=   1.6kbits/s speed=0.0138x elapsed=0:00:15.67    \nframe=   16 fps=1.0 q=30.8 size=       0KiB time=00:00:00.23 bitrate=   1.5kbits/s speed=0.0144x elapsed=0:00:16.18    \nframe=   16 fps=1.0 q=30.8 size=       0KiB time=00:00:00.23 bitrate=   1.5kbits/s speed=0.014x elapsed=0:00:16.69    \nframe=   18 fps=1.0 q=31.2 size=       0KiB time=00:00:00.26 bitrate=   1.3kbits/s speed=0.0155x elapsed=0:00:17.21    \nframe=   19 fps=1.1 q=30.2 size=       0KiB time=00:00:00.28 bitrate=   1.2kbits/s speed=0.016x elapsed=0:00:17.73    \nframe=   19 fps=1.0 q=30.2 size=       0KiB time=00:00:00.28 bitrate=   1.2kbits/s speed=0.0155x elapsed=0:00:18.25    \nframe=   21 fps=1.1 q=29.1 size=       0KiB time=00:00:00.31 bitrate=   1.1kbits/s speed=0.0169x elapsed=0:00:18.77    \nframe=   21 fps=1.1 q=29.1 size=       0KiB time=00:00:00.31 bitrate=   1.1kbits/s speed=0.0164x elapsed=0:00:19.28    \nframe=   21 fps=1.1 q=29.1 size=       0KiB time=00:00:00.31 bitrate=   1.1kbits/s speed=0.016x elapsed=0:00:19.81    \nframe=   22 fps=1.1 q=23.9 size=       0KiB time=00:00:00.33 bitrate=   1.1kbits/s speed=0.0164x elapsed=0:00:20.33    \nframe=   23 fps=1.1 q=29.5 size=       0KiB time=00:00:00.35 bitrate=   1.0kbits/s speed=0.0168x elapsed=0:00:20.85    \nframe=   24 fps=1.1 q=29.9 size=       0KiB time=00:00:00.36 bitrate=   1.0kbits/s speed=0.0172x elapsed=0:00:21.36    \nframe=   24 fps=1.1 q=29.9 size=       0KiB time=00:00:00.36 bitrate=   1.0kbits/s speed=0.0168x elapsed=0:00:21.88    \nframe=   24 fps=1.1 q=29.9 size=       0KiB time=00:00:00.36 bitrate=   1.0kbits/s speed=0.0164x elapsed=0:00:22.39    \nframe=   25 fps=1.1 q=28.8 size=       0KiB time=00:00:00.38 bitrate=   0.9kbits/s speed=0.0167x elapsed=0:00:22.92    \nframe=   25 fps=1.1 q=28.8 size=       0KiB time=00:00:00.38 bitrate=   0.9kbits/s speed=0.0164x elapsed=0:00:23.44    \nframe=   26 fps=1.1 q=28.2 size=       0KiB time=00:00:00.40 bitrate=   0.9kbits/s speed=0.0167x elapsed=0:00:23.96    \nframe=   26 fps=1.1 q=28.2 size=       0KiB time=00:00:00.40 bitrate=   0.9kbits/s speed=0.0163x elapsed=0:00:24.48    \nframe=   27 fps=1.1 q=23.5 size=       0KiB time=00:00:00.41 bitrate=   0.8kbits/s speed=0.0167x elapsed=0:00:24.99    \nframe=   29 fps=1.1 q=29.0 size=       0KiB time=00:00:00.45 bitrate=   0.8kbits/s speed=0.0176x elapsed=0:00:25.51    \nframe=   29 fps=1.1 q=29.0 size=       0KiB time=00:00:00.45 bitrate=   0.8kbits/s speed=0.0173x elapsed=0:00:26.02    \nframe=   29 fps=1.1 q=29.0 size=       0KiB time=00:00:00.45 bitrate=   0.8kbits/s speed=0.0169x elapsed=0:00:26.57    \nframe=   30 fps=1.1 q=28.6 size=       0KiB time=00:00:00.46 bitrate=   0.8kbits/s speed=0.0172x elapsed=0:00:27.08    \nframe=   30 fps=1.1 q=28.6 size=       0KiB time=00:00:00.46 bitrate=   0.8kbits/s speed=0.0169x elapsed=0:00:27.60    \nframe=   31 fps=1.1 q=28.4 size=       0KiB time=00:00:00.48 bitrate=   0.7kbits/s speed=0.0172x elapsed=0:00:28.11    \nframe=   32 fps=1.1 q=23.3 size=       0KiB time=00:00:00.50 bitrate=   0.7kbits/s speed=0.0175x elapsed=0:00:28.65    \nframe=   33 fps=1.1 q=26.2 size=       0KiB time=00:00:00.51 bitrate=   0.7kbits/s speed=0.0177x elapsed=0:00:29.18    \nframe=   33 fps=1.1 q=26.2 size=       0KiB time=00:00:00.51 bitrate=   0.7kbits/s speed=0.0174x elapsed=0:00:29.70    \nframe=   34 fps=1.1 q=29.0 size=       0KiB time=00:00:00.53 bitrate=   0.7kbits/s speed=0.0177x elapsed=0:00:30.20    \nframe=   34 fps=1.1 q=29.0 size=       0KiB time=00:00:00.53 bitrate=   0.7kbits/s speed=0.0173x elapsed=0:00:30.74    \nframe=   35 fps=1.1 q=27.9 size=       0KiB time=00:00:00.55 bitrate=   0.6kbits/s speed=0.0176x elapsed=0:00:31.25    \nframe=   36 fps=1.1 q=23.5 size=       0KiB time=00:00:00.56 bitrate=   0.6kbits/s speed=0.0178x elapsed=0:00:31.78    \nframe=   37 fps=1.1 q=26.7 size=       0KiB time=00:00:00.58 bitrate=   0.6kbits/s speed=0.0181x elapsed=0:00:32.30    \nframe=   37 fps=1.1 q=26.7 size=       0KiB time=00:00:00.58 bitrate=   0.6kbits/s speed=0.0178x elapsed=0:00:32.83    \nframe=   38 fps=1.1 q=28.7 size=       0KiB time=00:00:00.60 bitrate=   0.6kbits/s speed=0.018x elapsed=0:00:33.34    \nframe=   38 fps=1.1 q=28.7 size=       0KiB time=00:00:00.60 bitrate=   0.6kbits/s speed=0.0177x elapsed=0:00:33.85    \nframe=   39 fps=1.1 q=28.2 size=       0KiB time=00:00:00.61 bitrate=   0.6kbits/s speed=0.0179x elapsed=0:00:34.36    \nframe=   40 fps=1.1 q=27.9 size=       0KiB time=00:00:00.63 bitrate=   0.6kbits/s speed=0.0182x elapsed=0:00:34.88    \nframe=   40 fps=1.1 q=27.9 size=       0KiB time=00:00:00.63 bitrate=   0.6kbits/s speed=0.0179x elapsed=0:00:35.40    \nframe=   42 fps=1.2 q=26.6 size=       0KiB time=00:00:00.66 bitrate=   0.5kbits/s speed=0.0186x elapsed=0:00:35.92    \nframe=   42 fps=1.2 q=26.6 size=       0KiB time=00:00:00.66 bitrate=   0.5kbits/s speed=0.0183x elapsed=0:00:36.42    \nframe=   42 fps=1.1 q=26.6 size=       0KiB time=00:00:00.66 bitrate=   0.5kbits/s speed=0.018x elapsed=0:00:36.95    \nframe=   42 fps=1.1 q=26.6 size=       0KiB time=00:00:00.66 bitrate=   0.5kbits/s speed=0.0178x elapsed=0:00:37.47    \nframe=   42 fps=1.1 q=26.6 size=       0KiB time=00:00:00.66 bitrate=   0.5kbits/s speed=0.0175x elapsed=0:00:38.01    \nframe=   43 fps=1.1 q=28.7 size=       0KiB time=00:00:00.68 bitrate=   0.5kbits/s speed=0.0177x elapsed=0:00:38.55    \nframe=   43 fps=1.1 q=28.7 size=       0KiB time=00:00:00.68 bitrate=   0.5kbits/s speed=0.0175x elapsed=0:00:39.07    \nframe=   43 fps=1.1 q=28.7 size=       0KiB time=00:00:00.68 bitrate=   0.5kbits/s speed=0.0173x elapsed=0:00:39.60    \nframe=   44 fps=1.1 q=27.8 size=       0KiB time=00:00:00.70 bitrate=   0.5kbits/s speed=0.0174x elapsed=0:00:40.11    \nframe=   45 fps=1.1 q=23.0 size=       0KiB time=00:00:00.71 bitrate=   0.5kbits/s speed=0.0176x elapsed=0:00:40.63    \nframe=   45 fps=1.1 q=23.0 size=       0KiB time=00:00:00.71 bitrate=   0.5kbits/s speed=0.0174x elapsed=0:00:41.17    \nframe=   46 fps=1.1 q=23.0 size=       0KiB time=00:00:00.73 bitrate=   0.5kbits/s speed=0.0176x elapsed=0:00:41.67    \nframe=   46 fps=1.1 q=23.0 size=       0KiB time=00:00:00.73 bitrate=   0.5kbits/s speed=0.0174x elapsed=0:00:42.19    \nframe=   46 fps=1.1 q=23.0 size=       0KiB time=00:00:00.73 bitrate=   0.5kbits/s speed=0.0172x elapsed=0:00:42.71    \nframe=   47 fps=1.1 q=29.0 size=       0KiB time=00:00:00.75 bitrate=   0.5kbits/s speed=0.0173x elapsed=0:00:43.23    \nframe=   47 fps=1.1 q=29.0 size=       0KiB time=00:00:00.75 bitrate=   0.5kbits/s speed=0.0171x elapsed=0:00:43.76    \nframe=   48 fps=1.1 q=23.4 size=       0KiB time=00:00:00.76 bitrate=   0.5kbits/s speed=0.0173x elapsed=0:00:44.29    \nframe=   49 fps=1.1 q=27.0 size=       0KiB time=00:00:00.78 bitrate=   0.4kbits/s speed=0.0175x elapsed=0:00:44.80    \nframe=   49 fps=1.1 q=27.0 size=       0KiB time=00:00:00.78 bitrate=   0.4kbits/s speed=0.0173x elapsed=0:00:45.32    \nframe=   50 fps=1.1 q=29.3 size=     256KiB time=00:00:00.80 bitrate=2621.9kbits/s speed=0.0174x elapsed=0:00:45.84    \nframe=   50 fps=1.1 q=29.3 size=     256KiB time=00:00:00.80 bitrate=2621.9kbits/s speed=0.0173x elapsed=0:00:46.37    \nframe=   50 fps=1.1 q=29.3 size=     256KiB time=00:00:00.80 bitrate=2621.9kbits/s speed=0.0171x elapsed=0:00:46.88    \nframe=   51 fps=1.1 q=29.4 size=     256KiB time=00:00:00.81 bitrate=2568.4kbits/s speed=0.0172x elapsed=0:00:47.40    \nframe=   51 fps=1.1 q=29.4 size=     256KiB time=00:00:00.81 bitrate=2568.4kbits/s speed=0.017x elapsed=0:00:47.94    \nframe=   52 fps=1.1 q=29.1 size=     256KiB time=00:00:00.83 bitrate=2517.0kbits/s speed=0.0172x elapsed=0:00:48.47    \nframe=   53 fps=1.1 q=24.0 size=     256KiB time=00:00:00.85 bitrate=2467.7kbits/s speed=0.0173x elapsed=0:00:48.99    \nframe=   54 fps=1.1 q=26.6 size=     256KiB time=00:00:00.86 bitrate=2420.2kbits/s speed=0.0175x elapsed=0:00:49.55    \nframe=   54 fps=1.1 q=26.6 size=     256KiB time=00:00:00.86 bitrate=2420.2kbits/s speed=0.0173x elapsed=0:00:50.06    \nframe=   54 fps=1.1 q=26.6 size=     256KiB time=00:00:00.86 bitrate=2420.2kbits/s speed=0.0171x elapsed=0:00:50.61    \nframe=   54 fps=1.1 q=26.6 size=     256KiB time=00:00:00.86 bitrate=2420.2kbits/s speed=0.0169x elapsed=0:00:51.15    \nframe=   54 fps=1.0 q=26.6 size=     256KiB time=00:00:00.86 bitrate=2420.2kbits/s speed=0.0168x elapsed=0:00:51.66    \nframe=   55 fps=1.1 q=29.9 size=     256KiB time=00:00:00.86 bitrate=2420.2kbits/s speed=0.0166x elapsed=0:00:52.18    \nframe=   55 fps=1.0 q=29.9 size=     256KiB time=00:00:00.88 bitrate=2374.5kbits/s speed=0.0167x elapsed=0:00:52.75    \nframe=   55 fps=1.0 q=29.9 size=     256KiB time=00:00:00.88 bitrate=2374.5kbits/s speed=0.0166x elapsed=0:00:53.26    \nframe=   55 fps=1.0 q=29.9 size=     256KiB time=00:00:00.88 bitrate=2374.5kbits/s speed=0.0164x elapsed=0:00:53.80    \nframe=   56 fps=1.0 q=29.8 size=     256KiB time=00:00:00.90 bitrate=2330.6kbits/s speed=0.0165x elapsed=0:00:54.38    \nframe=   56 fps=1.0 q=29.8 size=     256KiB time=00:00:00.90 bitrate=2330.6kbits/s speed=0.0164x elapsed=0:00:54.91    \nframe=   56 fps=1.0 q=29.8 size=     256KiB time=00:00:00.90 bitrate=2330.6kbits/s speed=0.0162x elapsed=0:00:55.44    \nframe=   56 fps=1.0 q=29.8 size=     256KiB time=00:00:00.90 bitrate=2330.6kbits/s speed=0.0161x elapsed=0:00:55.97    \nframe=   57 fps=1.0 q=23.6 size=     256KiB time=00:00:00.91 bitrate=2288.2kbits/s speed=0.0162x elapsed=0:00:56.49    \nframe=   57 fps=1.0 q=23.6 size=     256KiB time=00:00:00.91 bitrate=2288.2kbits/s speed=0.0161x elapsed=0:00:57.04    \nframe=   57 fps=1.0 q=23.6 size=     256KiB time=00:00:00.91 bitrate=2288.2kbits/s speed=0.0159x elapsed=0:00:57.59    \nframe=   57 fps=1.0 q=23.6 size=     256KiB time=00:00:00.91 bitrate=2288.2kbits/s speed=0.0158x elapsed=0:00:58.11    \nframe=   57 fps=1.0 q=23.6 size=     256KiB time=00:00:00.91 bitrate=2288.2kbits/s speed=0.0156x elapsed=0:00:58.61    \nframe=   58 fps=1.0 q=27.9 size=     256KiB time=00:00:00.93 bitrate=2247.3kbits/s speed=0.0158x elapsed=0:00:59.13    \nframe=   58 fps=1.0 q=27.9 size=     256KiB time=00:00:00.93 bitrate=2247.3kbits/s speed=0.0156x elapsed=0:00:59.64    \nframe=   58 fps=1.0 q=27.9 size=     256KiB time=00:00:00.93 bitrate=2247.3kbits/s speed=0.0155x elapsed=0:01:00.18    \nframe=   58 fps=1.0 q=27.9 size=     256KiB time=00:00:00.93 bitrate=2247.3kbits/s speed=0.0154x elapsed=0:01:00.73    \nframe=   58 fps=0.9 q=27.9 size=     256KiB time=00:00:00.93 bitrate=2247.3kbits/s speed=0.0152x elapsed=0:01:01.31    \nframe=   58 fps=0.9 q=27.9 size=     256KiB time=00:00:00.93 bitrate=2247.3kbits/s speed=0.0151x elapsed=0:01:01.86    \nframe=   59 fps=0.9 q=29.9 size=     256KiB time=00:00:00.95 bitrate=2207.9kbits/s speed=0.0152x elapsed=0:01:02.40    \nframe=   59 fps=0.9 q=29.9 size=     256KiB time=00:00:00.95 bitrate=2207.9kbits/s speed=0.0151x elapsed=0:01:02.92    \nframe=   59 fps=0.9 q=29.9 size=     256KiB time=00:00:00.95 bitrate=2207.9kbits/s speed=0.015x elapsed=0:01:03.46    \nframe=   59 fps=0.9 q=29.9 size=     256KiB time=00:00:00.95 bitrate=2207.9kbits/s speed=0.0148x elapsed=0:01:03.99    \nframe=   59 fps=0.9 q=29.9 size=     256KiB time=00:00:00.95 bitrate=2207.9kbits/s speed=0.0147x elapsed=0:01:04.54    \nframe=   60 fps=0.9 q=29.8 size=     256KiB time=00:00:00.96 bitrate=2169.8kbits/s speed=0.0148x elapsed=0:01:05.09    \nframe=   60 fps=0.9 q=29.8 size=     256KiB time=00:00:00.96 bitrate=2169.8kbits/s speed=0.0147x elapsed=0:01:05.64    \nframe=   60 fps=0.9 q=29.8 size=     256KiB time=00:00:00.96 bitrate=2169.8kbits/s speed=0.0146x elapsed=0:01:06.19    \nframe=   60 fps=0.9 q=29.8 size=     256KiB time=00:00:00.96 bitrate=2169.8kbits/s speed=0.0145x elapsed=0:01:06.82    \nframe=   60 fps=0.9 q=29.8 size=     256KiB time=00:00:00.96 bitrate=2169.8kbits/s speed=0.0143x elapsed=0:01:07.41    \nframe=   60 fps=0.9 q=29.8 size=     256KiB time=00:00:00.96 bitrate=2169.8kbits/s speed=0.0142x elapsed=0:01:07.95    \nframe=   60 fps=0.9 q=29.8 size=     256KiB time=00:00:00.96 bitrate=2169.8kbits/s speed=0.0141x elapsed=0:01:08.50    \nframe=   60 fps=0.9 q=29.8 size=     256KiB time=00:00:00.96 bitrate=2169.8kbits/s speed=0.014x elapsed=0:01:09.07    \nframe=   60 fps=0.9 q=29.8 size=     256KiB time=00:00:00.96 bitrate=2169.8kbits/s speed=0.0139x elapsed=0:01:09.59    \nframe=   60 fps=0.9 q=29.8 size=     256KiB time=00:00:00.96 bitrate=2169.8kbits/s speed=0.0138x elapsed=0:01:10.12    \nframe=   60 fps=0.8 q=29.8 size=     256KiB time=00:00:00.96 bitrate=2169.8kbits/s speed=0.0137x elapsed=0:01:10.65    \nframe=   61 fps=0.9 q=23.7 size=     256KiB time=00:00:00.98 bitrate=2133.1kbits/s speed=0.0138x elapsed=0:01:11.17    \nframe=   62 fps=0.9 q=27.9 size=     256KiB time=00:00:01.00 bitrate=2097.5kbits/s speed=0.0139x elapsed=0:01:11.69    \nframe=   62 fps=0.9 q=27.9 size=     256KiB time=00:00:01.00 bitrate=2097.5kbits/s speed=0.0138x elapsed=0:01:12.23    \nframe=   62 fps=0.9 q=27.9 size=     256KiB time=00:00:01.00 bitrate=2097.5kbits/s speed=0.0137x elapsed=0:01:12.78    \nframe=   62 fps=0.8 q=27.9 size=     256KiB time=00:00:01.00 bitrate=2097.5kbits/s speed=0.0136x elapsed=0:01:13.31    \nframe=   63 fps=0.9 q=30.0 size=     256KiB time=00:00:01.01 bitrate=2063.1kbits/s speed=0.0138x elapsed=0:01:13.86    \nframe=   64 fps=0.9 q=29.6 size=     256KiB time=00:00:01.03 bitrate=2029.8kbits/s speed=0.0139x elapsed=0:01:14.38    \nframe=   65 fps=0.9 q=24.3 size=     256KiB time=00:00:01.05 bitrate=1997.6kbits/s speed=0.014x elapsed=0:01:14.89    \nframe=   65 fps=0.9 q=24.3 size=     256KiB time=00:00:01.05 bitrate=1997.6kbits/s speed=0.0139x elapsed=0:01:15.42    \nframe=   65 fps=0.9 q=24.3 size=     256KiB time=00:00:01.05 bitrate=1997.6kbits/s speed=0.0138x elapsed=0:01:15.96    \nframe=   66 fps=0.9 q=27.7 size=     256KiB time=00:00:01.06 bitrate=1966.4kbits/s speed=0.0139x elapsed=0:01:16.51    \nframe=   66 fps=0.9 q=27.7 size=     256KiB time=00:00:01.06 bitrate=1966.4kbits/s speed=0.0138x elapsed=0:01:17.04    \nframe=   66 fps=0.9 q=27.7 size=     256KiB time=00:00:01.06 bitrate=1966.4kbits/s speed=0.0138x elapsed=0:01:17.55    \nframe=   66 fps=0.8 q=27.7 size=     256KiB time=00:00:01.06 bitrate=1966.4kbits/s speed=0.0137x elapsed=0:01:18.07    \nframe=   66 fps=0.8 q=27.7 size=     256KiB time=00:00:01.06 bitrate=1966.4kbits/s speed=0.0136x elapsed=0:01:18.60    \nframe=   67 fps=0.8 q=30.7 size=     256KiB time=00:00:01.08 bitrate=1936.2kbits/s speed=0.0137x elapsed=0:01:19.13    \nframe=   67 fps=0.8 q=30.7 size=     256KiB time=00:00:01.08 bitrate=1936.2kbits/s speed=0.0136x elapsed=0:01:19.66    \nframe=   67 fps=0.8 q=30.7 size=     256KiB time=00:00:01.08 bitrate=1936.2kbits/s speed=0.0135x elapsed=0:01:20.20    \nframe=   67 fps=0.8 q=30.7 size=     256KiB time=00:00:01.08 bitrate=1936.2kbits/s speed=0.0134x elapsed=0:01:20.74    \nframe=   67 fps=0.8 q=30.7 size=     256KiB time=00:00:01.08 bitrate=1936.2kbits/s speed=0.0133x elapsed=0:01:21.27    \nframe=   68 fps=0.8 q=29.9 size=     256KiB time=00:00:01.10 bitrate=1906.8kbits/s speed=0.0134x elapsed=0:01:21.79    \nframe=   68 fps=0.8 q=29.9 size=     256KiB time=00:00:01.10 bitrate=1906.8kbits/s speed=0.0134x elapsed=0:01:22.35    \nframe=   68 fps=0.8 q=29.9 size=     256KiB time=00:00:01.10 bitrate=1906.8kbits/s speed=0.0133x elapsed=0:01:22.90    \nframe=   68 fps=0.8 q=29.9 size=     256KiB time=00:00:01.10 bitrate=1906.8kbits/s speed=0.0132x elapsed=0:01:23.45    \nframe=   69 fps=0.8 q=23.5 size=     256KiB time=00:00:01.11 bitrate=1878.4kbits/s speed=0.0133x elapsed=0:01:23.99    \nframe=   70 fps=0.8 q=28.4 size=     256KiB time=00:00:01.13 bitrate=1850.7kbits/s speed=0.0134x elapsed=0:01:24.52    \nframe=   70 fps=0.8 q=28.4 size=     256KiB time=00:00:01.13 bitrate=1850.7kbits/s speed=0.0133x elapsed=0:01:25.05    \nframe=   71 fps=0.8 q=29.6 size=     256KiB time=00:00:01.15 bitrate=1823.9kbits/s speed=0.0134x elapsed=0:01:25.58    \nframe=   71 fps=0.8 q=29.6 size=     256KiB time=00:00:01.15 bitrate=1823.9kbits/s speed=0.0134x elapsed=0:01:26.10    \nframe=   71 fps=0.8 q=29.6 size=     256KiB time=00:00:01.15 bitrate=1823.9kbits/s speed=0.0133x elapsed=0:01:26.65    \nframe=   71 fps=0.8 q=29.6 size=     256KiB time=00:00:01.15 bitrate=1823.9kbits/s speed=0.0132x elapsed=0:01:27.18    \nframe=   72 fps=0.8 q=29.5 size=     256KiB time=00:00:01.16 bitrate=1797.9kbits/s speed=0.0133x elapsed=0:01:27.74    \nframe=   72 fps=0.8 q=29.5 size=     256KiB time=00:00:01.16 bitrate=1797.9kbits/s speed=0.0132x elapsed=0:01:28.26    \nframe=   73 fps=0.8 q=29.4 size=     256KiB time=00:00:01.18 bitrate=1772.5kbits/s speed=0.0133x elapsed=0:01:28.77    \nframe=   73 fps=0.8 q=29.4 size=     256KiB time=00:00:01.18 bitrate=1772.5kbits/s speed=0.0132x elapsed=0:01:29.32    \nframe=   73 fps=0.8 q=29.4 size=     256KiB time=00:00:01.18 bitrate=1772.5kbits/s speed=0.0132x elapsed=0:01:29.88    \nframe=   73 fps=0.8 q=29.4 size=     256KiB time=00:00:01.18 bitrate=1772.5kbits/s speed=0.0131x elapsed=0:01:30.45    \nframe=   73 fps=0.8 q=29.4 size=     256KiB time=00:00:01.18 bitrate=1772.5kbits/s speed=0.013x elapsed=0:01:31.02    \nframe=   74 fps=0.8 q=23.5 size=     256KiB time=00:00:01.20 bitrate=1747.9kbits/s speed=0.0131x elapsed=0:01:31.59    \nframe=   74 fps=0.8 q=23.5 size=     256KiB time=00:00:01.20 bitrate=1747.9kbits/s speed=0.013x elapsed=0:01:32.20    \nframe=   74 fps=0.8 q=23.5 size=     256KiB time=00:00:01.20 bitrate=1747.9kbits/s speed=0.0129x elapsed=0:01:32.73    \nframe=   75 fps=0.8 q=24.6 size=     256KiB time=00:00:01.21 bitrate=1724.0kbits/s speed=0.013x elapsed=0:01:33.25    \nframe=   76 fps=0.8 q=29.7 size=     256KiB time=00:00:01.23 bitrate=1700.7kbits/s speed=0.0131x elapsed=0:01:33.79    \nframe=   76 fps=0.8 q=29.7 size=     256KiB time=00:00:01.23 bitrate=1700.7kbits/s speed=0.0131x elapsed=0:01:34.32    \nframe=   77 fps=0.8 q=29.7 size=     256KiB time=00:00:01.25 bitrate=1678.0kbits/s speed=0.0132x elapsed=0:01:34.87    \nframe=   77 fps=0.8 q=29.7 size=     256KiB time=00:00:01.25 bitrate=1678.0kbits/s speed=0.0131x elapsed=0:01:35.40    \nframe=   77 fps=0.8 q=29.7 size=     256KiB time=00:00:01.25 bitrate=1678.0kbits/s speed=0.013x elapsed=0:01:35.93    \nframe=   77 fps=0.8 q=29.7 size=     256KiB time=00:00:01.25 bitrate=1678.0kbits/s speed=0.013x elapsed=0:01:36.46    \nframe=   77 fps=0.8 q=29.7 size=     256KiB time=00:00:01.25 bitrate=1678.0kbits/s speed=0.0129x elapsed=0:01:37.00    \nframe=   77 fps=0.8 q=29.7 size=     256KiB time=00:00:01.25 bitrate=1678.0kbits/s speed=0.0128x elapsed=0:01:37.57    \nframe=   77 fps=0.8 q=29.7 size=     256KiB time=00:00:01.25 bitrate=1678.0kbits/s speed=0.0127x elapsed=0:01:38.14    \nframe=   77 fps=0.8 q=29.7 size=     256KiB time=00:00:01.25 bitrate=1678.0kbits/s speed=0.0127x elapsed=0:01:38.68    \nframe=   77 fps=0.8 q=29.7 size=     256KiB time=00:00:01.25 bitrate=1678.0kbits/s speed=0.0126x elapsed=0:01:39.25    \nframe=   77 fps=0.8 q=29.7 size=     256KiB time=00:00:01.25 bitrate=1678.0kbits/s speed=0.0125x elapsed=0:01:39.80    \nframe=   77 fps=0.8 q=29.7 size=     256KiB time=00:00:01.25 bitrate=1678.0kbits/s speed=0.0125x elapsed=0:01:40.36    \nframe=   77 fps=0.8 q=29.7 size=     256KiB time=00:00:01.25 bitrate=1678.0kbits/s speed=0.0124x elapsed=0:01:40.88    \nframe=   77 fps=0.8 q=29.7 size=     256KiB time=00:00:01.25 bitrate=1678.0kbits/s speed=0.0123x elapsed=0:01:41.40    \nframe=   77 fps=0.8 q=29.7 size=     256KiB time=00:00:01.25 bitrate=1678.0kbits/s speed=0.0123x elapsed=0:01:41.94    \nframe=   77 fps=0.8 q=29.7 size=     256KiB time=00:00:01.25 bitrate=1678.0kbits/s speed=0.0122x elapsed=0:01:42.53    \nframe=   77 fps=0.7 q=29.7 size=     256KiB time=00:00:01.25 bitrate=1678.0kbits/s speed=0.0121x elapsed=0:01:43.08    \nframe=   78 fps=0.8 q=29.9 size=     256KiB time=00:00:01.26 bitrate=1655.9kbits/s speed=0.0122x elapsed=0:01:43.66    \nframe=   78 fps=0.7 q=29.9 size=     256KiB time=00:00:01.26 bitrate=1655.9kbits/s speed=0.0122x elapsed=0:01:44.24    \nframe=   78 fps=0.7 q=29.9 size=     256KiB time=00:00:01.26 bitrate=1655.9kbits/s speed=0.0121x elapsed=0:01:44.78    \nframe=   78 fps=0.7 q=29.9 size=     256KiB time=00:00:01.26 bitrate=1655.9kbits/s speed=0.012x elapsed=0:01:45.34    \nframe=   79 fps=0.7 q=23.7 size=     256KiB time=00:00:01.28 bitrate=1634.4kbits/s speed=0.0121x elapsed=0:01:45.91    \nframe=   79 fps=0.7 q=23.7 size=     256KiB time=00:00:01.28 bitrate=1634.4kbits/s speed=0.0121x elapsed=0:01:46.44    \nframe=   79 fps=0.7 q=23.7 size=     256KiB time=00:00:01.28 bitrate=1634.4kbits/s speed=0.012x elapsed=0:01:46.97    \nframe=   79 fps=0.7 q=23.7 size=     256KiB time=00:00:01.28 bitrate=1634.4kbits/s speed=0.0119x elapsed=0:01:47.53    \nframe=   80 fps=0.7 q=27.1 size=     256KiB time=00:00:01.30 bitrate=1613.5kbits/s speed=0.012x elapsed=0:01:48.06    \nframe=   80 fps=0.7 q=27.1 size=     256KiB time=00:00:01.30 bitrate=1613.5kbits/s speed=0.012x elapsed=0:01:48.65    \nframe=   80 fps=0.7 q=27.1 size=     256KiB time=00:00:01.30 bitrate=1613.5kbits/s speed=0.0119x elapsed=0:01:49.26    \nframe=   81 fps=0.7 q=30.4 size=     256KiB time=00:00:01.31 bitrate=1593.0kbits/s speed=0.012x elapsed=0:01:49.80    \nframe=   81 fps=0.7 q=30.4 size=     256KiB time=00:00:01.31 bitrate=1593.0kbits/s speed=0.0119x elapsed=0:01:50.32    \nframe=   81 fps=0.7 q=30.4 size=     256KiB time=00:00:01.31 bitrate=1593.0kbits/s speed=0.0119x elapsed=0:01:50.86    \nframe=   81 fps=0.7 q=30.4 size=     256KiB time=00:00:01.31 bitrate=1593.0kbits/s speed=0.0118x elapsed=0:01:51.39    \nframe=   81 fps=0.7 q=30.4 size=     256KiB time=00:00:01.31 bitrate=1593.0kbits/s speed=0.0118x elapsed=0:01:51.91    \nframe=   81 fps=0.7 q=30.4 size=     256KiB time=00:00:01.31 bitrate=1593.0kbits/s speed=0.0117x elapsed=0:01:52.46    \nframe=   81 fps=0.7 q=30.4 size=     256KiB time=00:00:01.31 bitrate=1593.0kbits/s speed=0.0117x elapsed=0:01:53.00    \nframe=   81 fps=0.7 q=30.4 size=     256KiB time=00:00:01.31 bitrate=1593.0kbits/s speed=0.0116x elapsed=0:01:53.54    \nframe=   81 fps=0.7 q=30.4 size=     256KiB time=00:00:01.31 bitrate=1593.0kbits/s speed=0.0115x elapsed=0:01:54.08    \nframe=   81 fps=0.7 q=30.4 size=     256KiB time=00:00:01.31 bitrate=1593.0kbits/s speed=0.0115x elapsed=0:01:54.63    \nframe=   81 fps=0.7 q=30.4 size=     256KiB time=00:00:01.31 bitrate=1593.0kbits/s speed=0.0114x elapsed=0:01:55.17    \nframe=   81 fps=0.7 q=30.4 size=     256KiB time=00:00:01.31 bitrate=1593.0kbits/s speed=0.0114x elapsed=0:01:55.69    \nframe=   81 fps=0.7 q=30.4 size=     256KiB time=00:00:01.31 bitrate=1593.0kbits/s speed=0.0113x elapsed=0:01:56.30    \nframe=   82 fps=0.7 q=30.2 size=     256KiB time=00:00:01.33 bitrate=1573.1kbits/s speed=0.0114x elapsed=0:01:56.88    \nframe=   82 fps=0.7 q=30.2 size=     256KiB time=00:00:01.33 bitrate=1573.1kbits/s speed=0.0114x elapsed=0:01:57.42    \nframe=   82 fps=0.7 q=30.2 size=     256KiB time=00:00:01.33 bitrate=1573.1kbits/s speed=0.0113x elapsed=0:01:57.97    \nframe=   82 fps=0.7 q=30.2 size=     256KiB time=00:00:01.33 bitrate=1573.1kbits/s speed=0.0112x elapsed=0:01:58.55    \nframe=   82 fps=0.7 q=30.2 size=     256KiB time=00:00:01.33 bitrate=1573.1kbits/s speed=0.0112x elapsed=0:01:59.17    \nframe=   82 fps=0.7 q=30.2 size=     256KiB time=00:00:01.33 bitrate=1573.1kbits/s speed=0.0111x elapsed=0:01:59.76    \nframe=   82 fps=0.7 q=30.2 size=     256KiB time=00:00:01.33 bitrate=1573.1kbits/s speed=0.0111x elapsed=0:02:00.31    \nframe=   82 fps=0.7 q=30.2 size=     256KiB time=00:00:01.33 bitrate=1573.1kbits/s speed=0.011x elapsed=0:02:00.87    \nframe=   82 fps=0.7 q=30.2 size=     256KiB time=00:00:01.33 bitrate=1573.1kbits/s speed=0.011x elapsed=0:02:01.50    \nframe=   83 fps=0.7 q=30.4 size=     256KiB time=00:00:01.35 bitrate=1553.7kbits/s speed=0.0111x elapsed=0:02:02.09    \nframe=   83 fps=0.7 q=30.4 size=     256KiB time=00:00:01.35 bitrate=1553.7kbits/s speed=0.011x elapsed=0:02:02.72    \nframe=   84 fps=0.7 q=23.5 size=     256KiB time=00:00:01.36 bitrate=1534.8kbits/s speed=0.0111x elapsed=0:02:03.28    \nframe=   84 fps=0.7 q=23.5 size=     256KiB time=00:00:01.36 bitrate=1534.8kbits/s speed=0.011x elapsed=0:02:03.86    \nframe=   84 fps=0.7 q=23.5 size=     256KiB time=00:00:01.36 bitrate=1534.8kbits/s speed=0.011x elapsed=0:02:04.40    \nframe=   84 fps=0.7 q=23.5 size=     256KiB time=00:00:01.36 bitrate=1534.8kbits/s speed=0.0109x elapsed=0:02:04.99    \nframe=   84 fps=0.7 q=23.5 size=     256KiB time=00:00:01.36 bitrate=1534.8kbits/s speed=0.0109x elapsed=0:02:05.54    \nframe=   85 fps=0.7 q=27.7 size=     256KiB time=00:00:01.38 bitrate=1516.3kbits/s speed=0.011x elapsed=0:02:06.07    \nframe=   85 fps=0.7 q=27.7 size=     256KiB time=00:00:01.38 bitrate=1516.3kbits/s speed=0.0109x elapsed=0:02:06.60    \nframe=   85 fps=0.7 q=27.7 size=     256KiB time=00:00:01.38 bitrate=1516.3kbits/s speed=0.0109x elapsed=0:02:07.15    \nframe=   85 fps=0.7 q=27.7 size=     256KiB time=00:00:01.38 bitrate=1516.3kbits/s speed=0.0108x elapsed=0:02:07.71    \nframe=   86 fps=0.7 q=30.7 size=     256KiB time=00:00:01.40 bitrate=1498.2kbits/s speed=0.0109x elapsed=0:02:08.22    \nframe=   86 fps=0.7 q=30.7 size=     256KiB time=00:00:01.40 bitrate=1498.2kbits/s speed=0.0109x elapsed=0:02:08.79    \nframe=   86 fps=0.7 q=30.7 size=     256KiB time=00:00:01.40 bitrate=1498.2kbits/s speed=0.0108x elapsed=0:02:09.37    \nframe=   86 fps=0.7 q=30.7 size=     256KiB time=00:00:01.40 bitrate=1498.2kbits/s speed=0.0108x elapsed=0:02:09.93    \nframe=   86 fps=0.7 q=30.7 size=     256KiB time=00:00:01.40 bitrate=1498.2kbits/s speed=0.0107x elapsed=0:02:10.46    \nframe=   86 fps=0.7 q=30.7 size=     256KiB time=00:00:01.40 bitrate=1498.2kbits/s speed=0.0107x elapsed=0:02:11.00    \nframe=   86 fps=0.7 q=30.7 size=     256KiB time=00:00:01.40 bitrate=1498.2kbits/s speed=0.0106x elapsed=0:02:11.54    \nframe=   86 fps=0.7 q=30.7 size=     256KiB time=00:00:01.40 bitrate=1498.2kbits/s speed=0.0106x elapsed=0:02:12.08    \nframe=   86 fps=0.6 q=30.7 size=     256KiB time=00:00:01.40 bitrate=1498.2kbits/s speed=0.0106x elapsed=0:02:12.61    \nframe=   87 fps=0.7 q=30.6 size=     256KiB time=00:00:01.41 bitrate=1480.6kbits/s speed=0.0106x elapsed=0:02:13.14    \nframe=   87 fps=0.7 q=30.6 size=     256KiB time=00:00:01.41 bitrate=1480.6kbits/s speed=0.0106x elapsed=0:02:13.66    \nframe=   88 fps=0.7 q=30.7 size=     256KiB time=00:00:01.43 bitrate=1463.4kbits/s speed=0.0107x elapsed=0:02:14.19    \nframe=   88 fps=0.7 q=30.7 size=     256KiB time=00:00:01.43 bitrate=1463.4kbits/s speed=0.0106x elapsed=0:02:14.73    \nframe=   88 fps=0.7 q=30.7 size=     256KiB time=00:00:01.43 bitrate=1463.4kbits/s speed=0.0106x elapsed=0:02:15.28    \nframe=   89 fps=0.7 q=23.4 size=     512KiB time=00:00:01.45 bitrate=2892.9kbits/s speed=0.0107x elapsed=0:02:15.84    \nframe=   90 fps=0.7 q=29.1 size=     512KiB time=00:00:01.45 bitrate=2892.9kbits/s speed=0.0106x elapsed=0:02:16.35    \nframe=   90 fps=0.7 q=29.1 size=     512KiB time=00:00:01.46 bitrate=2860.0kbits/s speed=0.0107x elapsed=0:02:16.92    \nframe=   90 fps=0.7 q=29.1 size=     512KiB time=00:00:01.46 bitrate=2860.0kbits/s speed=0.0107x elapsed=0:02:17.45    \nframe=   91 fps=0.7 q=29.8 size=     512KiB time=00:00:01.48 bitrate=2827.9kbits/s speed=0.0107x elapsed=0:02:18.02    \nframe=   91 fps=0.7 q=29.8 size=     512KiB time=00:00:01.48 bitrate=2827.9kbits/s speed=0.0107x elapsed=0:02:18.54    \nframe=   91 fps=0.7 q=29.8 size=     512KiB time=00:00:01.48 bitrate=2827.9kbits/s speed=0.0107x elapsed=0:02:19.07    \nframe=   91 fps=0.7 q=29.8 size=     512KiB time=00:00:01.48 bitrate=2827.9kbits/s speed=0.0106x elapsed=0:02:19.63    \nframe=   91 fps=0.6 q=29.8 size=     512KiB time=00:00:01.48 bitrate=2827.9kbits/s speed=0.0106x elapsed=0:02:20.17    \nframe=   92 fps=0.7 q=30.0 size=     512KiB time=00:00:01.50 bitrate=2796.4kbits/s speed=0.0107x elapsed=0:02:20.71    \nframe=   92 fps=0.7 q=30.0 size=     512KiB time=00:00:01.50 bitrate=2796.4kbits/s speed=0.0106x elapsed=0:02:21.23    \nframe=   93 fps=0.7 q=29.6 size=     512KiB time=00:00:01.51 bitrate=2765.7kbits/s speed=0.0107x elapsed=0:02:21.74    \nframe=   93 fps=0.7 q=29.6 size=     512KiB time=00:00:01.51 bitrate=2765.7kbits/s speed=0.0107x elapsed=0:02:22.31    \nframe=   94 fps=0.7 q=23.2 size=     512KiB time=00:00:01.53 bitrate=2735.6kbits/s speed=0.0107x elapsed=0:02:22.85    \nframe=   94 fps=0.7 q=23.2 size=     512KiB time=00:00:01.53 bitrate=2735.6kbits/s speed=0.0107x elapsed=0:02:23.42    \nframe=   94 fps=0.7 q=23.2 size=     512KiB time=00:00:01.53 bitrate=2735.6kbits/s speed=0.0107x elapsed=0:02:23.96    \nframe=   94 fps=0.7 q=23.2 size=     512KiB time=00:00:01.53 bitrate=2735.6kbits/s speed=0.0106x elapsed=0:02:24.50    \nframe=   94 fps=0.6 q=23.2 size=     512KiB time=00:00:01.53 bitrate=2735.6kbits/s speed=0.0106x elapsed=0:02:25.04    \nframe=   95 fps=0.7 q=28.5 size=     512KiB time=00:00:01.55 bitrate=2706.2kbits/s speed=0.0106x elapsed=0:02:25.56    \nframe=   95 fps=0.7 q=28.5 size=     512KiB time=00:00:01.55 bitrate=2706.2kbits/s speed=0.0106x elapsed=0:02:26.09    \nframe=   95 fps=0.6 q=28.5 size=     512KiB time=00:00:01.55 bitrate=2706.2kbits/s speed=0.0106x elapsed=0:02:26.60    \nframe=   96 fps=0.7 q=29.7 size=     512KiB time=00:00:01.56 bitrate=2677.4kbits/s speed=0.0106x elapsed=0:02:27.15    \nframe=   96 fps=0.6 q=29.7 size=     512KiB time=00:00:01.56 bitrate=2677.4kbits/s speed=0.0106x elapsed=0:02:27.69    \nframe=   96 fps=0.6 q=29.7 size=     512KiB time=00:00:01.56 bitrate=2677.4kbits/s speed=0.0106x elapsed=0:02:28.23    \nframe=   96 fps=0.6 q=29.7 size=     512KiB time=00:00:01.56 bitrate=2677.4kbits/s speed=0.0105x elapsed=0:02:28.79    \nframe=   96 fps=0.6 q=29.7 size=     512KiB time=00:00:01.56 bitrate=2677.4kbits/s speed=0.0105x elapsed=0:02:29.35    \nframe=   97 fps=0.6 q=29.6 size=     512KiB time=00:00:01.58 bitrate=2649.3kbits/s speed=0.0106x elapsed=0:02:29.88    \nframe=   97 fps=0.6 q=29.6 size=     512KiB time=00:00:01.58 bitrate=2649.3kbits/s speed=0.0105x elapsed=0:02:30.39    \nframe=   97 fps=0.6 q=29.6 size=     512KiB time=00:00:01.58 bitrate=2649.3kbits/s speed=0.0105x elapsed=0:02:30.92    \nframe=   98 fps=0.6 q=29.3 size=     512KiB time=00:00:01.60 bitrate=2621.7kbits/s speed=0.0106x elapsed=0:02:31.45    \nframe=   98 fps=0.6 q=29.3 size=     512KiB time=00:00:01.60 bitrate=2621.7kbits/s speed=0.0105x elapsed=0:02:31.97    \nframe=   98 fps=0.6 q=29.3 size=     512KiB time=00:00:01.60 bitrate=2621.7kbits/s speed=0.0105x elapsed=0:02:32.51    \nframe=   98 fps=0.6 q=29.3 size=     512KiB time=00:00:01.60 bitrate=2621.7kbits/s speed=0.0105x elapsed=0:02:33.02    \nframe=   99 fps=0.6 q=23.7 size=     512KiB time=00:00:01.61 bitrate=2594.6kbits/s speed=0.0105x elapsed=0:02:33.54    \nframe=   99 fps=0.6 q=23.7 size=     512KiB time=00:00:01.61 bitrate=2594.6kbits/s speed=0.0105x elapsed=0:02:34.05    \nframe=   99 fps=0.6 q=23.7 size=     512KiB time=00:00:01.61 bitrate=2594.6kbits/s speed=0.0105x elapsed=0:02:34.57    \nframe=  100 fps=0.6 q=28.1 size=     512KiB time=00:00:01.63 bitrate=2568.2kbits/s speed=0.0105x elapsed=0:02:35.11    \nframe=  100 fps=0.6 q=28.1 size=     512KiB time=00:00:01.63 bitrate=2568.2kbits/s speed=0.0105x elapsed=0:02:35.68    \nframe=  100 fps=0.6 q=28.1 size=     512KiB time=00:00:01.63 bitrate=2568.2kbits/s speed=0.0105x elapsed=0:02:36.21    \nframe=  100 fps=0.6 q=28.1 size=     512KiB time=00:00:01.63 bitrate=2568.2kbits/s speed=0.0104x elapsed=0:02:36.75    \nframe=  101 fps=0.6 q=29.5 size=     512KiB time=00:00:01.65 bitrate=2542.2kbits/s speed=0.0105x elapsed=0:02:37.27    \nframe=  101 fps=0.6 q=29.5 size=     512KiB time=00:00:01.65 bitrate=2542.2kbits/s speed=0.0105x elapsed=0:02:37.80    \nframe=  101 fps=0.6 q=29.5 size=     512KiB time=00:00:01.65 bitrate=2542.2kbits/s speed=0.0104x elapsed=0:02:38.33    \nframe=  101 fps=0.6 q=29.5 size=     512KiB time=00:00:01.65 bitrate=2542.2kbits/s speed=0.0104x elapsed=0:02:38.85    \nframe=  102 fps=0.6 q=28.9 size=     512KiB time=00:00:01.66 bitrate=2516.8kbits/s speed=0.0105x elapsed=0:02:39.40    \nframe=  102 fps=0.6 q=28.9 size=     512KiB time=00:00:01.66 bitrate=2516.8kbits/s speed=0.0104x elapsed=0:02:39.93    \nframe=  102 fps=0.6 q=28.9 size=     512KiB time=00:00:01.66 bitrate=2516.8kbits/s speed=0.0104x elapsed=0:02:40.44    \nframe=  103 fps=0.6 q=28.8 size=     512KiB time=00:00:01.68 bitrate=2491.9kbits/s speed=0.0105x elapsed=0:02:40.96    \nframe=  103 fps=0.6 q=28.8 size=     512KiB time=00:00:01.68 bitrate=2491.9kbits/s speed=0.0104x elapsed=0:02:41.48    \nframe=  103 fps=0.6 q=28.8 size=     512KiB time=00:00:01.68 bitrate=2491.9kbits/s speed=0.0104x elapsed=0:02:42.04    \nframe=  104 fps=0.6 q=22.7 size=     512KiB time=00:00:01.70 bitrate=2467.4kbits/s speed=0.0105x elapsed=0:02:42.60    \nframe=  104 fps=0.6 q=22.7 size=     512KiB time=00:00:01.70 bitrate=2467.4kbits/s speed=0.0104x elapsed=0:02:43.14    \nframe=  105 fps=0.6 q=28.1 size=     512KiB time=00:00:01.71 bitrate=2443.5kbits/s speed=0.0105x elapsed=0:02:43.67    \nframe=  105 fps=0.6 q=28.1 size=     512KiB time=00:00:01.71 bitrate=2443.5kbits/s speed=0.0105x elapsed=0:02:44.19    \nframe=  105 fps=0.6 q=28.1 size=     512KiB time=00:00:01.71 bitrate=2443.5kbits/s speed=0.0104x elapsed=0:02:44.71    \nframe=  106 fps=0.6 q=28.6 size=     512KiB time=00:00:01.73 bitrate=2420.0kbits/s speed=0.0105x elapsed=0:02:45.24    \nframe=  106 fps=0.6 q=28.6 size=     512KiB time=00:00:01.73 bitrate=2420.0kbits/s speed=0.0105x elapsed=0:02:45.75    \nframe=  106 fps=0.6 q=28.6 size=     512KiB time=00:00:01.73 bitrate=2420.0kbits/s speed=0.0104x elapsed=0:02:46.27    \nframe=  106 fps=0.6 q=28.6 size=     512KiB time=00:00:01.73 bitrate=2420.0kbits/s speed=0.0104x elapsed=0:02:46.79    \nframe=  106 fps=0.6 q=28.6 size=     512KiB time=00:00:01.73 bitrate=2420.0kbits/s speed=0.0104x elapsed=0:02:47.33    \nframe=  106 fps=0.6 q=28.6 size=     512KiB time=00:00:01.73 bitrate=2420.0kbits/s speed=0.0103x elapsed=0:02:47.85    \nframe=  107 fps=0.6 q=28.6 size=     512KiB time=00:00:01.75 bitrate=2396.9kbits/s speed=0.0104x elapsed=0:02:48.37    \nframe=  108 fps=0.6 q=28.5 size=     512KiB time=00:00:01.76 bitrate=2374.3kbits/s speed=0.0105x elapsed=0:02:48.89    \nframe=  108 fps=0.6 q=28.5 size=     512KiB time=00:00:01.76 bitrate=2374.3kbits/s speed=0.0104x elapsed=0:02:49.45    \nframe=  108 fps=0.6 q=28.5 size=     512KiB time=00:00:01.76 bitrate=2374.3kbits/s speed=0.0104x elapsed=0:02:49.99    \nframe=  108 fps=0.6 q=28.5 size=     512KiB time=00:00:01.76 bitrate=2374.3kbits/s speed=0.0104x elapsed=0:02:50.55    \nframe=  108 fps=0.6 q=28.5 size=     512KiB time=00:00:01.76 bitrate=2374.3kbits/s speed=0.0103x elapsed=0:02:51.13    \nframe=  108 fps=0.6 q=28.5 size=     512KiB time=00:00:01.76 bitrate=2374.3kbits/s speed=0.0103x elapsed=0:02:51.66    \nframe=  109 fps=0.6 q=22.5 size=     512KiB time=00:00:01.78 bitrate=2352.1kbits/s speed=0.0104x elapsed=0:02:52.19    \nframe=  109 fps=0.6 q=22.5 size=     512KiB time=00:00:01.78 bitrate=2352.1kbits/s speed=0.0103x elapsed=0:02:52.71    \nframe=  110 fps=0.6 q=27.2 size=     512KiB time=00:00:01.80 bitrate=2330.4kbits/s speed=0.0104x elapsed=0:02:53.22    \nframe=  110 fps=0.6 q=27.2 size=     512KiB time=00:00:01.80 bitrate=2330.4kbits/s speed=0.0104x elapsed=0:02:53.75    \nframe=  111 fps=0.6 q=28.6 size=     512KiB time=00:00:01.81 bitrate=2309.0kbits/s speed=0.0104x elapsed=0:02:54.28    \nframe=  111 fps=0.6 q=28.6 size=     512KiB time=00:00:01.81 bitrate=2309.0kbits/s speed=0.0104x elapsed=0:02:54.81    \nframe=  111 fps=0.6 q=28.6 size=     512KiB time=00:00:01.81 bitrate=2309.0kbits/s speed=0.0104x elapsed=0:02:55.33    \nframe=  111 fps=0.6 q=28.6 size=     512KiB time=00:00:01.81 bitrate=2309.0kbits/s speed=0.0103x elapsed=0:02:55.85    \nframe=  111 fps=0.6 q=28.6 size=     512KiB time=00:00:01.81 bitrate=2309.0kbits/s speed=0.0103x elapsed=0:02:56.40    \nframe=  111 fps=0.6 q=28.6 size=     512KiB time=00:00:01.81 bitrate=2309.0kbits/s speed=0.0103x elapsed=0:02:56.94    \nframe=  111 fps=0.6 q=28.6 size=     512KiB time=00:00:01.81 bitrate=2309.0kbits/s speed=0.0102x elapsed=0:02:57.52    \nframe=  111 fps=0.6 q=28.6 size=     512KiB time=00:00:01.81 bitrate=2309.0kbits/s speed=0.0102x elapsed=0:02:58.14    \nframe=  111 fps=0.6 q=28.6 size=     512KiB time=00:00:01.81 bitrate=2309.0kbits/s speed=0.0102x elapsed=0:02:58.68    \nframe=  111 fps=0.6 q=28.6 size=     512KiB time=00:00:01.81 bitrate=2309.0kbits/s speed=0.0101x elapsed=0:02:59.29    \nframe=  112 fps=0.6 q=28.5 size=     512KiB time=00:00:01.83 bitrate=2288.0kbits/s speed=0.0102x elapsed=0:02:59.84    \nframe=  112 fps=0.6 q=28.5 size=     512KiB time=00:00:01.83 bitrate=2288.0kbits/s speed=0.0102x elapsed=0:03:00.37    \nframe=  112 fps=0.6 q=28.5 size=     512KiB time=00:00:01.83 bitrate=2288.0kbits/s speed=0.0101x elapsed=0:03:00.92    \nframe=  113 fps=0.6 q=28.9 size=     512KiB time=00:00:01.85 bitrate=2267.4kbits/s speed=0.0102x elapsed=0:03:01.45    \nframe=  113 fps=0.6 q=28.9 size=     512KiB time=00:00:01.85 bitrate=2267.4kbits/s speed=0.0102x elapsed=0:03:02.00    \nframe=  113 fps=0.6 q=28.9 size=     512KiB time=00:00:01.85 bitrate=2267.4kbits/s speed=0.0101x elapsed=0:03:02.53    \nframe=  113 fps=0.6 q=28.9 size=     512KiB time=00:00:01.85 bitrate=2267.4kbits/s speed=0.0101x elapsed=0:03:03.06    \nframe=  113 fps=0.6 q=28.9 size=     512KiB time=00:00:01.85 bitrate=2267.4kbits/s speed=0.0101x elapsed=0:03:03.59    \nframe=  114 fps=0.6 q=22.7 size=     512KiB time=00:00:01.86 bitrate=2247.1kbits/s speed=0.0101x elapsed=0:03:04.11    \nframe=  115 fps=0.6 q=27.4 size=     512KiB time=00:00:01.88 bitrate=2227.3kbits/s speed=0.0102x elapsed=0:03:04.63    \nframe=  116 fps=0.6 q=28.8 size=     512KiB time=00:00:01.90 bitrate=2207.7kbits/s speed=0.0103x elapsed=0:03:05.15    \nframe=  116 fps=0.6 q=28.8 size=     512KiB time=00:00:01.90 bitrate=2207.7kbits/s speed=0.0102x elapsed=0:03:05.70    \nframe=  116 fps=0.6 q=28.8 size=     512KiB time=00:00:01.90 bitrate=2207.7kbits/s speed=0.0102x elapsed=0:03:06.21    \nframe=  116 fps=0.6 q=28.8 size=     512KiB time=00:00:01.90 bitrate=2207.7kbits/s speed=0.0102x elapsed=0:03:06.73    \nframe=  117 fps=0.6 q=28.6 size=     512KiB time=00:00:01.91 bitrate=2188.5kbits/s speed=0.0102x elapsed=0:03:07.26    \nframe=  118 fps=0.6 q=28.4 size=     512KiB time=00:00:01.93 bitrate=2169.7kbits/s speed=0.0103x elapsed=0:03:07.77    \nframe=  119 fps=0.6 q=21.8 size=     512KiB time=00:00:01.95 bitrate=2151.1kbits/s speed=0.0104x elapsed=0:03:08.29    \nframe=  120 fps=0.6 q=27.6 size=     512KiB time=00:00:01.96 bitrate=2132.9kbits/s speed=0.0104x elapsed=0:03:08.82    \nframe=  120 fps=0.6 q=27.6 size=     512KiB time=00:00:01.96 bitrate=2132.9kbits/s speed=0.0104x elapsed=0:03:09.37    \nframe=  122 fps=0.6 q=28.3 size=     512KiB time=00:00:02.00 bitrate=2097.3kbits/s speed=0.0105x elapsed=0:03:09.88    \nframe=  123 fps=0.6 q=27.9 size=     512KiB time=00:00:02.01 bitrate=2080.0kbits/s speed=0.0106x elapsed=0:03:10.42    \nframe=  123 fps=0.6 q=27.9 size=     512KiB time=00:00:02.01 bitrate=2080.0kbits/s speed=0.0106x elapsed=0:03:10.93    \nframe=  123 fps=0.6 q=27.9 size=     512KiB time=00:00:02.01 bitrate=2080.0kbits/s speed=0.0105x elapsed=0:03:11.45    \nframe=  124 fps=0.6 q=22.3 size=     512KiB time=00:00:02.01 bitrate=2080.0kbits/s speed=0.0105x elapsed=0:03:11.99    \nframe=  124 fps=0.6 q=22.3 size=     512KiB time=00:00:02.03 bitrate=2062.9kbits/s speed=0.0106x elapsed=0:03:12.50    \nframe=  125 fps=0.6 q=27.5 size=     512KiB time=00:00:02.05 bitrate=2046.2kbits/s speed=0.0106x elapsed=0:03:13.02    \nframe=  125 fps=0.6 q=27.5 size=     512KiB time=00:00:02.05 bitrate=2046.2kbits/s speed=0.0106x elapsed=0:03:13.54    \nframe=  126 fps=0.6 q=28.9 size=     512KiB time=00:00:02.06 bitrate=2029.7kbits/s speed=0.0106x elapsed=0:03:14.09    \nframe=  127 fps=0.7 q=28.3 size=     512KiB time=00:00:02.08 bitrate=2013.4kbits/s speed=0.0107x elapsed=0:03:14.62    \nframe=  128 fps=0.7 q=28.4 size=     512KiB time=00:00:02.10 bitrate=1997.5kbits/s speed=0.0108x elapsed=0:03:15.15    \nframe=  129 fps=0.7 q=22.3 size=     512KiB time=00:00:02.11 bitrate=1981.7kbits/s speed=0.0108x elapsed=0:03:15.67    \nframe=  129 fps=0.7 q=22.3 size=     512KiB time=00:00:02.11 bitrate=1981.7kbits/s speed=0.0108x elapsed=0:03:16.22    \nframe=  129 fps=0.7 q=22.3 size=     512KiB time=00:00:02.11 bitrate=1981.7kbits/s speed=0.0108x elapsed=0:03:16.74    \nframe=  130 fps=0.7 q=27.3 size=     512KiB time=00:00:02.13 bitrate=1966.2kbits/s speed=0.0108x elapsed=0:03:17.26    \nframe=  131 fps=0.7 q=28.7 size=     512KiB time=00:00:02.15 bitrate=1951.0kbits/s speed=0.0109x elapsed=0:03:17.78    \nframe=  132 fps=0.7 q=27.7 size=     768KiB time=00:00:02.16 bitrate=2903.9kbits/s speed=0.0109x elapsed=0:03:18.30    \nframe=  133 fps=0.7 q=27.0 size=     768KiB time=00:00:02.18 bitrate=2881.7kbits/s speed=0.011x elapsed=0:03:18.81    \nframe=  133 fps=0.7 q=27.0 size=     768KiB time=00:00:02.18 bitrate=2881.7kbits/s speed=0.011x elapsed=0:03:19.33    \nframe=  133 fps=0.7 q=27.0 size=     768KiB time=00:00:02.18 bitrate=2881.7kbits/s speed=0.0109x elapsed=0:03:19.89    \nframe=  134 fps=0.7 q=21.3 size=     768KiB time=00:00:02.20 bitrate=2859.9kbits/s speed=0.011x elapsed=0:03:20.39    \nframe=  134 fps=0.7 q=21.3 size=     768KiB time=00:00:02.20 bitrate=2859.9kbits/s speed=0.0109x elapsed=0:03:20.92    \nframe=  136 fps=0.7 q=27.4 size=     768KiB time=00:00:02.23 bitrate=2817.2kbits/s speed=0.0111x elapsed=0:03:21.45    \nframe=  136 fps=0.7 q=27.4 size=     768KiB time=00:00:02.23 bitrate=2817.2kbits/s speed=0.0111x elapsed=0:03:21.99    \nframe=  136 fps=0.7 q=27.4 size=     768KiB time=00:00:02.23 bitrate=2817.2kbits/s speed=0.011x elapsed=0:03:22.52    \nframe=  137 fps=0.7 q=27.6 size=     768KiB time=00:00:02.25 bitrate=2796.4kbits/s speed=0.0111x elapsed=0:03:23.04    \nframe=  138 fps=0.7 q=27.5 size=     768KiB time=00:00:02.26 bitrate=2775.8kbits/s speed=0.0111x elapsed=0:03:23.55    \nframe=  139 fps=0.7 q=22.4 size=     768KiB time=00:00:02.28 bitrate=2755.5kbits/s speed=0.0112x elapsed=0:03:24.06    \nframe=  139 fps=0.7 q=22.4 size=     768KiB time=00:00:02.28 bitrate=2755.5kbits/s speed=0.0112x elapsed=0:03:24.59    \nframe=  139 fps=0.7 q=22.4 size=     768KiB time=00:00:02.28 bitrate=2755.5kbits/s speed=0.0111x elapsed=0:03:25.11    \nframe=  141 fps=0.7 q=28.6 size=     768KiB time=00:00:02.31 bitrate=2715.9kbits/s speed=0.0113x elapsed=0:03:25.64    \nframe=  142 fps=0.7 q=28.7 size=     768KiB time=00:00:02.33 bitrate=2696.5kbits/s speed=0.0113x elapsed=0:03:26.18    \nframe=  142 fps=0.7 q=28.7 size=     768KiB time=00:00:02.33 bitrate=2696.5kbits/s speed=0.0113x elapsed=0:03:26.69    \nframe=  143 fps=0.7 q=22.7 size=     768KiB time=00:00:02.35 bitrate=2677.4kbits/s speed=0.0113x elapsed=0:03:27.21    \nframe=  144 fps=0.7 q=25.6 size=     768KiB time=00:00:02.36 bitrate=2658.5kbits/s speed=0.0114x elapsed=0:03:27.76    \nframe=  144 fps=0.7 q=25.6 size=     768KiB time=00:00:02.36 bitrate=2658.5kbits/s speed=0.0114x elapsed=0:03:28.31    \nframe=  144 fps=0.7 q=25.6 size=     768KiB time=00:00:02.36 bitrate=2658.5kbits/s speed=0.0113x elapsed=0:03:28.84    \nframe=  146 fps=0.7 q=28.3 size=     768KiB time=00:00:02.40 bitrate=2621.6kbits/s speed=0.0115x elapsed=0:03:29.35    \nframe=  146 fps=0.7 q=28.3 size=     768KiB time=00:00:02.40 bitrate=2621.6kbits/s speed=0.0114x elapsed=0:03:29.86    \nframe=  147 fps=0.7 q=28.9 size=     768KiB time=00:00:02.41 bitrate=2603.5kbits/s speed=0.0115x elapsed=0:03:30.38    \nframe=  147 fps=0.7 q=28.9 size=     768KiB time=00:00:02.41 bitrate=2603.5kbits/s speed=0.0115x elapsed=0:03:30.91    \nframe=  147 fps=0.7 q=28.9 size=     768KiB time=00:00:02.41 bitrate=2603.5kbits/s speed=0.0114x elapsed=0:03:31.42    \nframe=  148 fps=0.7 q=22.6 size=     768KiB time=00:00:02.43 bitrate=2585.7kbits/s speed=0.0115x elapsed=0:03:31.95    \nframe=  150 fps=0.7 q=29.7 size=     768KiB time=00:00:02.46 bitrate=2550.7kbits/s speed=0.0116x elapsed=0:03:32.46    \nframe=  151 fps=0.7 q=29.4 size=     768KiB time=00:00:02.48 bitrate=2533.6kbits/s speed=0.0117x elapsed=0:03:32.97    \nframe=  151 fps=0.7 q=29.4 size=     768KiB time=00:00:02.48 bitrate=2533.6kbits/s speed=0.0116x elapsed=0:03:33.51    \nframe=  151 fps=0.7 q=29.4 size=     768KiB time=00:00:02.48 bitrate=2533.6kbits/s speed=0.0116x elapsed=0:03:34.06    \nframe=  152 fps=0.7 q=29.5 size=     768KiB time=00:00:02.50 bitrate=2516.7kbits/s speed=0.0116x elapsed=0:03:34.60    \nframe=  152 fps=0.7 q=29.5 size=     768KiB time=00:00:02.50 bitrate=2516.7kbits/s speed=0.0116x elapsed=0:03:35.14    \nframe=  152 fps=0.7 q=29.5 size=     768KiB time=00:00:02.50 bitrate=2516.7kbits/s speed=0.0116x elapsed=0:03:35.66    \nframe=  152 fps=0.7 q=29.5 size=     768KiB time=00:00:02.50 bitrate=2516.7kbits/s speed=0.0116x elapsed=0:03:36.18    \nframe=  152 fps=0.7 q=29.5 size=     768KiB time=00:00:02.50 bitrate=2516.7kbits/s speed=0.0115x elapsed=0:03:36.71    \nframe=  153 fps=0.7 q=23.6 size=     768KiB time=00:00:02.51 bitrate=2500.1kbits/s speed=0.0116x elapsed=0:03:37.29    \nframe=  153 fps=0.7 q=23.6 size=     768KiB time=00:00:02.51 bitrate=2500.1kbits/s speed=0.0116x elapsed=0:03:37.87    \nframe=  153 fps=0.7 q=23.6 size=     768KiB time=00:00:02.51 bitrate=2500.1kbits/s speed=0.0115x elapsed=0:03:38.43    \nframe=  154 fps=0.7 q=27.3 size=     768KiB time=00:00:02.53 bitrate=2483.6kbits/s speed=0.0116x elapsed=0:03:38.94    \nframe=  154 fps=0.7 q=27.3 size=     768KiB time=00:00:02.53 bitrate=2483.6kbits/s speed=0.0115x elapsed=0:03:39.46    \nframe=  154 fps=0.7 q=27.3 size=     768KiB time=00:00:02.53 bitrate=2483.6kbits/s speed=0.0115x elapsed=0:03:40.00    \nframe=  155 fps=0.7 q=29.7 size=     768KiB time=00:00:02.55 bitrate=2467.4kbits/s speed=0.0116x elapsed=0:03:40.54    \nframe=  156 fps=0.7 q=29.6 size=     768KiB time=00:00:02.56 bitrate=2451.4kbits/s speed=0.0116x elapsed=0:03:41.07    \nframe=  156 fps=0.7 q=29.6 size=     768KiB time=00:00:02.56 bitrate=2451.4kbits/s speed=0.0116x elapsed=0:03:41.66    \nframe=  156 fps=0.7 q=29.6 size=     768KiB time=00:00:02.56 bitrate=2451.4kbits/s speed=0.0116x elapsed=0:03:42.18    \nframe=  156 fps=0.7 q=29.6 size=     768KiB time=00:00:02.56 bitrate=2451.4kbits/s speed=0.0115x elapsed=0:03:42.73    \nframe=  156 fps=0.7 q=29.6 size=     768KiB time=00:00:02.56 bitrate=2451.4kbits/s speed=0.0115x elapsed=0:03:43.28    \nframe=  157 fps=0.7 q=30.0 size=     768KiB time=00:00:02.58 bitrate=2435.5kbits/s speed=0.0115x elapsed=0:03:43.83    \nframe=  158 fps=0.7 q=23.4 size=     768KiB time=00:00:02.60 bitrate=2419.9kbits/s speed=0.0116x elapsed=0:03:44.38    \nframe=  158 fps=0.7 q=23.4 size=     768KiB time=00:00:02.60 bitrate=2419.9kbits/s speed=0.0116x elapsed=0:03:44.90    \nframe=  158 fps=0.7 q=23.4 size=     768KiB time=00:00:02.60 bitrate=2419.9kbits/s speed=0.0115x elapsed=0:03:45.42    \nframe=  159 fps=0.7 q=28.4 size=     768KiB time=00:00:02.61 bitrate=2404.5kbits/s speed=0.0116x elapsed=0:03:45.96    \nframe=  159 fps=0.7 q=28.4 size=     768KiB time=00:00:02.61 bitrate=2404.5kbits/s speed=0.0116x elapsed=0:03:46.49    \nframe=  160 fps=0.7 q=29.5 size=     768KiB time=00:00:02.63 bitrate=2389.3kbits/s speed=0.0116x elapsed=0:03:47.02    \nframe=  161 fps=0.7 q=30.0 size=     768KiB time=00:00:02.65 bitrate=2374.3kbits/s speed=0.0116x elapsed=0:03:47.54    \nframe=  161 fps=0.7 q=30.0 size=     768KiB time=00:00:02.65 bitrate=2374.3kbits/s speed=0.0116x elapsed=0:03:48.05    \nframe=  161 fps=0.7 q=30.0 size=     768KiB time=00:00:02.65 bitrate=2374.3kbits/s speed=0.0116x elapsed=0:03:48.56    \nframe=  161 fps=0.7 q=30.0 size=     768KiB time=00:00:02.65 bitrate=2374.3kbits/s speed=0.0116x elapsed=0:03:49.11    \nframe=  161 fps=0.7 q=30.0 size=     768KiB time=00:00:02.65 bitrate=2374.3kbits/s speed=0.0115x elapsed=0:03:49.71    \nframe=  161 fps=0.7 q=30.0 size=     768KiB time=00:00:02.65 bitrate=2374.3kbits/s speed=0.0115x elapsed=0:03:50.25    \nframe=  161 fps=0.7 q=30.0 size=     768KiB time=00:00:02.65 bitrate=2374.3kbits/s speed=0.0115x elapsed=0:03:50.80    \nframe=  161 fps=0.7 q=30.0 size=     768KiB time=00:00:02.65 bitrate=2374.3kbits/s speed=0.0115x elapsed=0:03:51.32    \nframe=  162 fps=0.7 q=30.0 size=     768KiB time=00:00:02.66 bitrate=2359.4kbits/s speed=0.0115x elapsed=0:03:51.88    \nframe=  162 fps=0.7 q=30.0 size=     768KiB time=00:00:02.66 bitrate=2359.4kbits/s speed=0.0115x elapsed=0:03:52.49    \nframe=  162 fps=0.7 q=30.0 size=     768KiB time=00:00:02.66 bitrate=2359.4kbits/s speed=0.0114x elapsed=0:03:53.09    \nframe=  162 fps=0.7 q=30.0 size=     768KiB time=00:00:02.66 bitrate=2359.4kbits/s speed=0.0114x elapsed=0:03:53.63    \nframe=  162 fps=0.7 q=30.0 size=     768KiB time=00:00:02.66 bitrate=2359.4kbits/s speed=0.0114x elapsed=0:03:54.18    \nframe=  162 fps=0.7 q=30.0 size=     768KiB time=00:00:02.66 bitrate=2359.4kbits/s speed=0.0114x elapsed=0:03:54.79    \nframe=  162 fps=0.7 q=30.0 size=     768KiB time=00:00:02.66 bitrate=2359.4kbits/s speed=0.0113x elapsed=0:03:55.40    \nframe=  163 fps=0.7 q=23.8 size=     768KiB time=00:00:02.68 bitrate=2344.8kbits/s speed=0.0114x elapsed=0:03:55.99    \nframe=  163 fps=0.7 q=23.8 size=     768KiB time=00:00:02.68 bitrate=2344.8kbits/s speed=0.0113x elapsed=0:03:56.59    \nframe=  163 fps=0.7 q=23.8 size=     768KiB time=00:00:02.68 bitrate=2344.8kbits/s speed=0.0113x elapsed=0:03:57.17    \nframe=  163 fps=0.7 q=23.8 size=     768KiB time=00:00:02.68 bitrate=2344.8kbits/s speed=0.0113x elapsed=0:03:57.71    \nframe=  164 fps=0.7 q=26.8 size=     768KiB time=00:00:02.70 bitrate=2330.3kbits/s speed=0.0113x elapsed=0:03:58.23    \nframe=  164 fps=0.7 q=26.8 size=     768KiB time=00:00:02.70 bitrate=2330.3kbits/s speed=0.0113x elapsed=0:03:58.75    \nframe=  165 fps=0.7 q=29.7 size=     768KiB time=00:00:02.71 bitrate=2316.0kbits/s speed=0.0114x elapsed=0:03:59.29    \nframe=  165 fps=0.7 q=29.7 size=     768KiB time=00:00:02.71 bitrate=2316.0kbits/s speed=0.0113x elapsed=0:03:59.82    \nframe=  166 fps=0.7 q=30.1 size=     768KiB time=00:00:02.73 bitrate=2301.9kbits/s speed=0.0114x elapsed=0:04:00.35    \nframe=  166 fps=0.7 q=30.1 size=     768KiB time=00:00:02.73 bitrate=2301.9kbits/s speed=0.0113x elapsed=0:04:00.88    \nframe=  167 fps=0.7 q=24.2 size=     768KiB time=00:00:02.75 bitrate=2287.9kbits/s speed=0.0114x elapsed=0:04:01.41    \nframe=  168 fps=0.7 q=27.0 size=     768KiB time=00:00:02.76 bitrate=2274.1kbits/s speed=0.0114x elapsed=0:04:01.92    \nframe=  169 fps=0.7 q=30.0 size=     768KiB time=00:00:02.78 bitrate=2260.5kbits/s speed=0.0115x elapsed=0:04:02.44    \nframe=  170 fps=0.7 q=30.1 size=     768KiB time=00:00:02.80 bitrate=2247.1kbits/s speed=0.0115x elapsed=0:04:02.96    \nframe=  170 fps=0.7 q=30.1 size=     768KiB time=00:00:02.80 bitrate=2247.1kbits/s speed=0.0115x elapsed=0:04:03.48    \nframe=  171 fps=0.7 q=24.2 size=    1024KiB time=00:00:02.80 bitrate=2996.1kbits/s speed=0.0115x elapsed=0:04:04.00    \nframe=  172 fps=0.7 q=27.8 size=    1024KiB time=00:00:02.83 bitrate=2960.8kbits/s speed=0.0116x elapsed=0:04:04.53    \nframe=  172 fps=0.7 q=27.8 size=    1024KiB time=00:00:02.83 bitrate=2960.8kbits/s speed=0.0116x elapsed=0:04:05.08    \nframe=  172 fps=0.7 q=27.8 size=    1024KiB time=00:00:02.83 bitrate=2960.8kbits/s speed=0.0115x elapsed=0:04:05.62    \nframe=  174 fps=0.7 q=30.4 size=    1024KiB time=00:00:02.86 bitrate=2926.4kbits/s speed=0.0116x elapsed=0:04:06.13    \nframe=  174 fps=0.7 q=30.4 size=    1024KiB time=00:00:02.86 bitrate=2926.4kbits/s speed=0.0116x elapsed=0:04:06.65    \nframe=  175 fps=0.7 q=24.4 size=    1024KiB time=00:00:02.88 bitrate=2909.5kbits/s speed=0.0117x elapsed=0:04:07.19    \nframe=  176 fps=0.7 q=27.8 size=    1024KiB time=00:00:02.90 bitrate=2892.7kbits/s speed=0.0117x elapsed=0:04:07.71    \nframe=  177 fps=0.7 q=30.5 size=    1024KiB time=00:00:02.91 bitrate=2876.2kbits/s speed=0.0117x elapsed=0:04:08.23    \nframe=  178 fps=0.7 q=30.5 size=    1024KiB time=00:00:02.93 bitrate=2859.9kbits/s speed=0.0118x elapsed=0:04:08.76    \nframe=  178 fps=0.7 q=30.5 size=    1024KiB time=00:00:02.93 bitrate=2859.9kbits/s speed=0.0118x elapsed=0:04:09.27    \nframe=  178 fps=0.7 q=30.5 size=    1024KiB time=00:00:02.93 bitrate=2859.9kbits/s speed=0.0117x elapsed=0:04:09.79    \nframe=  178 fps=0.7 q=30.5 size=    1024KiB time=00:00:02.93 bitrate=2859.9kbits/s speed=0.0117x elapsed=0:04:10.31    \nframe=  179 fps=0.7 q=23.9 size=    1024KiB time=00:00:02.95 bitrate=2843.7kbits/s speed=0.0118x elapsed=0:04:10.81    \nframe=  180 fps=0.7 q=27.9 size=    1024KiB time=00:00:02.96 bitrate=2827.7kbits/s speed=0.0118x elapsed=0:04:11.33    \nframe=  180 fps=0.7 q=27.9 size=    1024KiB time=00:00:02.96 bitrate=2827.7kbits/s speed=0.0118x elapsed=0:04:11.85    \nframe=  180 fps=0.7 q=27.9 size=    1024KiB time=00:00:02.96 bitrate=2827.7kbits/s speed=0.0118x elapsed=0:04:12.36    \nframe=  181 fps=0.7 q=30.3 size=    1024KiB time=00:00:02.98 bitrate=2811.9kbits/s speed=0.0118x elapsed=0:04:12.89    \nframe=  181 fps=0.7 q=30.3 size=    1024KiB time=00:00:02.98 bitrate=2811.9kbits/s speed=0.0118x elapsed=0:04:13.40    \nframe=  182 fps=0.7 q=30.6 size=    1024KiB time=00:00:03.00 bitrate=2796.3kbits/s speed=0.0118x elapsed=0:04:13.91    \nframe=  182 fps=0.7 q=30.6 size=    1024KiB time=00:00:03.00 bitrate=2796.3kbits/s speed=0.0118x elapsed=0:04:14.43    \nframe=  183 fps=0.7 q=23.8 size=    1024KiB time=00:00:03.01 bitrate=2780.9kbits/s speed=0.0118x elapsed=0:04:14.96    \nframe=  183 fps=0.7 q=23.8 size=    1024KiB time=00:00:03.01 bitrate=2780.9kbits/s speed=0.0118x elapsed=0:04:15.48    \nframe=  184 fps=0.7 q=27.4 size=    1024KiB time=00:00:03.03 bitrate=2765.6kbits/s speed=0.0118x elapsed=0:04:16.01    \nframe=  184 fps=0.7 q=27.4 size=    1024KiB time=00:00:03.03 bitrate=2765.6kbits/s speed=0.0118x elapsed=0:04:16.52    \nframe=  185 fps=0.7 q=30.6 size=    1024KiB time=00:00:03.05 bitrate=2750.5kbits/s speed=0.0119x elapsed=0:04:17.05    \nframe=  186 fps=0.7 q=30.7 size=    1024KiB time=00:00:03.06 bitrate=2735.5kbits/s speed=0.0119x elapsed=0:04:17.57    \nframe=  187 fps=0.7 q=24.5 size=    1024KiB time=00:00:03.08 bitrate=2720.7kbits/s speed=0.0119x elapsed=0:04:18.08    \nframe=  188 fps=0.7 q=27.9 size=    1024KiB time=00:00:03.10 bitrate=2706.1kbits/s speed=0.012x elapsed=0:04:18.61    \nframe=  189 fps=0.7 q=30.6 size=    1024KiB time=00:00:03.11 bitrate=2691.6kbits/s speed=0.012x elapsed=0:04:19.13    \nframe=  190 fps=0.7 q=31.2 size=    1024KiB time=00:00:03.13 bitrate=2677.3kbits/s speed=0.0121x elapsed=0:04:19.65    \nframe=  190 fps=0.7 q=31.2 size=    1024KiB time=00:00:03.13 bitrate=2677.3kbits/s speed=0.012x elapsed=0:04:20.21    \nframe=  191 fps=0.7 q=24.0 size=    1024KiB time=00:00:03.15 bitrate=2663.2kbits/s speed=0.0121x elapsed=0:04:20.73    \nframe=  192 fps=0.7 q=28.5 size=    1024KiB time=00:00:03.16 bitrate=2649.1kbits/s speed=0.0121x elapsed=0:04:21.26    \nframe=  193 fps=0.7 q=31.3 size=    1024KiB time=00:00:03.18 bitrate=2635.3kbits/s speed=0.0122x elapsed=0:04:21.81    \nframe=  193 fps=0.7 q=31.3 size=    1024KiB time=00:00:03.18 bitrate=2635.3kbits/s speed=0.0121x elapsed=0:04:22.33    \nframe=  194 fps=0.7 q=31.3 size=    1024KiB time=00:00:03.20 bitrate=2621.6kbits/s speed=0.0122x elapsed=0:04:22.90    \nframe=  194 fps=0.7 q=31.3 size=    1024KiB time=00:00:03.20 bitrate=2621.6kbits/s speed=0.0121x elapsed=0:04:23.49    \nframe=  194 fps=0.7 q=31.3 size=    1024KiB time=00:00:03.20 bitrate=2621.6kbits/s speed=0.0121x elapsed=0:04:24.15    \nframe=  194 fps=0.7 q=31.3 size=    1024KiB time=00:00:03.20 bitrate=2621.6kbits/s speed=0.0121x elapsed=0:04:24.66    \nframe=  194 fps=0.7 q=31.3 size=    1024KiB time=00:00:03.20 bitrate=2621.6kbits/s speed=0.0121x elapsed=0:04:25.21    \nframe=  194 fps=0.7 q=31.3 size=    1024KiB time=00:00:03.20 bitrate=2621.6kbits/s speed=0.012x elapsed=0:04:25.74    \nframe=  194 fps=0.7 q=31.3 size=    1024KiB time=00:00:03.20 bitrate=2621.6kbits/s speed=0.012x elapsed=0:04:26.32    \nframe=  195 fps=0.7 q=25.0 size=    1024KiB time=00:00:03.20 bitrate=2621.6kbits/s speed=0.012x elapsed=0:04:26.85    \nframe=  195 fps=0.7 q=25.0 size=    1024KiB time=00:00:03.21 bitrate=2608.0kbits/s speed=0.012x elapsed=0:04:27.44    \nframe=  195 fps=0.7 q=25.0 size=    1024KiB time=00:00:03.21 bitrate=2608.0kbits/s speed=0.012x elapsed=0:04:27.97    \nframe=  195 fps=0.7 q=25.0 size=    1024KiB time=00:00:03.21 bitrate=2608.0kbits/s speed=0.012x elapsed=0:04:28.49    \nframe=  195 fps=0.7 q=25.0 size=    1024KiB time=00:00:03.21 bitrate=2608.0kbits/s speed=0.012x elapsed=0:04:29.01    \nframe=  196 fps=0.7 q=27.9 size=    1024KiB time=00:00:03.23 bitrate=2594.5kbits/s speed=0.012x elapsed=0:04:29.53    \nframe=  196 fps=0.7 q=27.9 size=    1024KiB time=00:00:03.23 bitrate=2594.5kbits/s speed=0.012x elapsed=0:04:30.06    \nframe=  197 fps=0.7 q=31.5 size=    1024KiB time=00:00:03.25 bitrate=2581.2kbits/s speed=0.012x elapsed=0:04:30.59    \nframe=  197 fps=0.7 q=31.5 size=    1024KiB time=00:00:03.25 bitrate=2581.2kbits/s speed=0.012x elapsed=0:04:31.10    \nframe=  197 fps=0.7 q=31.5 size=    1024KiB time=00:00:03.25 bitrate=2581.2kbits/s speed=0.012x elapsed=0:04:31.62    \nframe=  199 fps=0.7 q=24.5 size=    1024KiB time=00:00:03.28 bitrate=2555.0kbits/s speed=0.0121x elapsed=0:04:32.13    \nframe=  199 fps=0.7 q=24.5 size=    1024KiB time=00:00:03.28 bitrate=2555.0kbits/s speed=0.012x elapsed=0:04:32.66    \nframe=  200 fps=0.7 q=28.2 size=    1024KiB time=00:00:03.30 bitrate=2542.1kbits/s speed=0.0121x elapsed=0:04:33.20    \nframe=  201 fps=0.7 q=31.4 size=    1024KiB time=00:00:03.31 bitrate=2529.3kbits/s speed=0.0121x elapsed=0:04:33.71    \nframe=  201 fps=0.7 q=31.4 size=    1024KiB time=00:00:03.31 bitrate=2529.3kbits/s speed=0.0121x elapsed=0:04:34.24    \nframe=  202 fps=0.7 q=31.4 size=    1024KiB time=00:00:03.33 bitrate=2516.7kbits/s speed=0.0121x elapsed=0:04:34.76    \nframe=  204 fps=0.7 q=28.7 size=    1024KiB time=00:00:03.36 bitrate=2491.8kbits/s speed=0.0122x elapsed=0:04:35.27    \nframe=  204 fps=0.7 q=28.7 size=    1024KiB time=00:00:03.36 bitrate=2491.8kbits/s speed=0.0122x elapsed=0:04:35.79    \nframe=  204 fps=0.7 q=28.7 size=    1024KiB time=00:00:03.36 bitrate=2491.8kbits/s speed=0.0122x elapsed=0:04:36.31    \nframe=  205 fps=0.7 q=31.8 size=    1024KiB time=00:00:03.38 bitrate=2479.5kbits/s speed=0.0122x elapsed=0:04:36.81    \nframe=  206 fps=0.7 q=31.7 size=    1024KiB time=00:00:03.40 bitrate=2467.3kbits/s speed=0.0123x elapsed=0:04:37.34    \nframe=  206 fps=0.7 q=31.7 size=    1024KiB time=00:00:03.40 bitrate=2467.3kbits/s speed=0.0122x elapsed=0:04:37.86    \nframe=  207 fps=0.7 q=24.6 size=    1280KiB time=00:00:03.41 bitrate=3069.1kbits/s speed=0.0123x elapsed=0:04:38.39    \nframe=  208 fps=0.7 q=28.3 size=    1280KiB time=00:00:03.43 bitrate=3054.2kbits/s speed=0.0123x elapsed=0:04:38.91    \nframe=  209 fps=0.7 q=31.5 size=    1280KiB time=00:00:03.45 bitrate=3039.5kbits/s speed=0.0123x elapsed=0:04:39.43    \nframe=  210 fps=0.8 q=31.6 size=    1280KiB time=00:00:03.46 bitrate=3024.8kbits/s speed=0.0124x elapsed=0:04:39.95    \nframe=  210 fps=0.7 q=31.6 size=    1280KiB time=00:00:03.46 bitrate=3024.8kbits/s speed=0.0124x elapsed=0:04:40.46    \nframe=  210 fps=0.7 q=31.6 size=    1280KiB time=00:00:03.46 bitrate=3024.8kbits/s speed=0.0123x elapsed=0:04:40.97    \nframe=  211 fps=0.7 q=24.3 size=    1280KiB time=00:00:03.48 bitrate=3010.4kbits/s speed=0.0124x elapsed=0:04:41.48    \nframe=  212 fps=0.8 q=28.2 size=    1280KiB time=00:00:03.50 bitrate=2996.0kbits/s speed=0.0124x elapsed=0:04:42.01    \nframe=  213 fps=0.8 q=31.2 size=    1280KiB time=00:00:03.51 bitrate=2981.8kbits/s speed=0.0124x elapsed=0:04:42.53    \nframe=  214 fps=0.8 q=31.3 size=    1280KiB time=00:00:03.53 bitrate=2967.8kbits/s speed=0.0125x elapsed=0:04:43.06    \nframe=  215 fps=0.8 q=24.5 size=    1280KiB time=00:00:03.55 bitrate=2953.8kbits/s speed=0.0125x elapsed=0:04:43.57    \nframe=  216 fps=0.8 q=28.2 size=    1280KiB time=00:00:03.56 bitrate=2940.0kbits/s speed=0.0126x elapsed=0:04:44.09    \nframe=  216 fps=0.8 q=28.2 size=    1280KiB time=00:00:03.56 bitrate=2940.0kbits/s speed=0.0125x elapsed=0:04:44.59    \nframe=  216 fps=0.8 q=28.2 size=    1280KiB time=00:00:03.56 bitrate=2940.0kbits/s speed=0.0125x elapsed=0:04:45.12    \nframe=  217 fps=0.8 q=31.1 size=    1280KiB time=00:00:03.58 bitrate=2926.4kbits/s speed=0.0125x elapsed=0:04:45.63    \nframe=  217 fps=0.8 q=31.1 size=    1280KiB time=00:00:03.58 bitrate=2926.4kbits/s speed=0.0125x elapsed=0:04:46.14    \nframe=  217 fps=0.8 q=31.1 size=    1280KiB time=00:00:03.58 bitrate=2926.4kbits/s speed=0.0125x elapsed=0:04:46.66    \nframe=  217 fps=0.8 q=31.1 size=    1280KiB time=00:00:03.58 bitrate=2926.4kbits/s speed=0.0125x elapsed=0:04:47.19    \nframe=  218 fps=0.8 q=31.1 size=    1280KiB time=00:00:03.60 bitrate=2912.8kbits/s speed=0.0125x elapsed=0:04:47.71    \nframe=  218 fps=0.8 q=31.1 size=    1280KiB time=00:00:03.60 bitrate=2912.8kbits/s speed=0.0125x elapsed=0:04:48.22    \nframe=  218 fps=0.8 q=31.1 size=    1280KiB time=00:00:03.60 bitrate=2912.8kbits/s speed=0.0125x elapsed=0:04:48.75    \nframe=  218 fps=0.8 q=31.1 size=    1280KiB time=00:00:03.60 bitrate=2912.8kbits/s speed=0.0124x elapsed=0:04:49.27    \nframe=  219 fps=0.8 q=24.4 size=    1280KiB time=00:00:03.61 bitrate=2899.4kbits/s speed=0.0125x elapsed=0:04:49.79    \nframe=  219 fps=0.8 q=24.4 size=    1280KiB time=00:00:03.61 bitrate=2899.4kbits/s speed=0.0125x elapsed=0:04:50.31    \nframe=  220 fps=0.8 q=28.3 size=    1280KiB time=00:00:03.63 bitrate=2886.1kbits/s speed=0.0125x elapsed=0:04:50.83    \nframe=  221 fps=0.8 q=31.4 size=    1280KiB time=00:00:03.65 bitrate=2872.9kbits/s speed=0.0125x elapsed=0:04:51.36    \nframe=  221 fps=0.8 q=31.4 size=    1280KiB time=00:00:03.65 bitrate=2872.9kbits/s speed=0.0125x elapsed=0:04:51.89    \nframe=  221 fps=0.8 q=31.4 size=    1280KiB time=00:00:03.65 bitrate=2872.9kbits/s speed=0.0125x elapsed=0:04:52.44    \nframe=  221 fps=0.8 q=31.4 size=    1280KiB time=00:00:03.65 bitrate=2872.9kbits/s speed=0.0125x elapsed=0:04:52.98    \nframe=  222 fps=0.8 q=31.2 size=    1280KiB time=00:00:03.66 bitrate=2859.8kbits/s speed=0.0125x elapsed=0:04:53.49    \nframe=  223 fps=0.8 q=24.8 size=    1280KiB time=00:00:03.68 bitrate=2846.9kbits/s speed=0.0125x elapsed=0:04:54.01    \nframe=  223 fps=0.8 q=24.8 size=    1280KiB time=00:00:03.68 bitrate=2846.9kbits/s speed=0.0125x elapsed=0:04:54.54    \nframe=  223 fps=0.8 q=24.8 size=    1280KiB time=00:00:03.68 bitrate=2846.9kbits/s speed=0.0125x elapsed=0:04:55.06    \nframe=  224 fps=0.8 q=28.5 size=    1280KiB time=00:00:03.70 bitrate=2834.1kbits/s speed=0.0125x elapsed=0:04:55.58    \nframe=  224 fps=0.8 q=28.5 size=    1280KiB time=00:00:03.70 bitrate=2834.1kbits/s speed=0.0125x elapsed=0:04:56.12    \nframe=  224 fps=0.8 q=28.5 size=    1280KiB time=00:00:03.70 bitrate=2834.1kbits/s speed=0.0125x elapsed=0:04:56.65    \nframe=  225 fps=0.8 q=31.5 size=    1280KiB time=00:00:03.71 bitrate=2821.4kbits/s speed=0.0125x elapsed=0:04:57.16    \nframe=  226 fps=0.8 q=31.2 size=    1280KiB time=00:00:03.73 bitrate=2808.8kbits/s speed=0.0125x elapsed=0:04:57.68    \nframe=  227 fps=0.8 q=24.5 size=    1280KiB time=00:00:03.75 bitrate=2796.3kbits/s speed=0.0126x elapsed=0:04:58.20    \nframe=  227 fps=0.8 q=24.5 size=    1280KiB time=00:00:03.75 bitrate=2796.3kbits/s speed=0.0126x elapsed=0:04:58.73    \nframe=  228 fps=0.8 q=28.6 size=    1280KiB time=00:00:03.76 bitrate=2783.9kbits/s speed=0.0126x elapsed=0:04:59.28    \nframe=  228 fps=0.8 q=28.6 size=    1280KiB time=00:00:03.76 bitrate=2783.9kbits/s speed=0.0126x elapsed=0:04:59.81    \nframe=  229 fps=0.8 q=31.5 size=    1280KiB time=00:00:03.78 bitrate=2771.7kbits/s speed=0.0126x elapsed=0:05:00.33    \nframe=  230 fps=0.8 q=31.1 size=    1280KiB time=00:00:03.80 bitrate=2759.5kbits/s speed=0.0126x elapsed=0:05:00.85    \nframe=  230 fps=0.8 q=31.1 size=    1280KiB time=00:00:03.80 bitrate=2759.5kbits/s speed=0.0126x elapsed=0:05:01.37    \nframe=  231 fps=0.8 q=24.4 size=    1280KiB time=00:00:03.81 bitrate=2747.5kbits/s speed=0.0126x elapsed=0:05:01.88    \nframe=  231 fps=0.8 q=24.4 size=    1280KiB time=00:00:03.81 bitrate=2747.5kbits/s speed=0.0126x elapsed=0:05:02.41    \nframe=  232 fps=0.8 q=28.1 size=    1280KiB time=00:00:03.83 bitrate=2735.5kbits/s speed=0.0127x elapsed=0:05:02.94    \nframe=  232 fps=0.8 q=28.1 size=    1280KiB time=00:00:03.83 bitrate=2735.5kbits/s speed=0.0126x elapsed=0:05:03.46    \nframe=  232 fps=0.8 q=28.1 size=    1280KiB time=00:00:03.83 bitrate=2735.5kbits/s speed=0.0126x elapsed=0:05:03.97    \nframe=  232 fps=0.8 q=28.1 size=    1280KiB time=00:00:03.83 bitrate=2735.5kbits/s speed=0.0126x elapsed=0:05:04.49    \nframe=  233 fps=0.8 q=31.3 size=    1280KiB time=00:00:03.85 bitrate=2723.7kbits/s speed=0.0126x elapsed=0:05:05.02    \nframe=  234 fps=0.8 q=31.2 size=    1280KiB time=00:00:03.86 bitrate=2711.9kbits/s speed=0.0127x elapsed=0:05:05.54    \nframe=  235 fps=0.8 q=24.2 size=    1280KiB time=00:00:03.88 bitrate=2700.3kbits/s speed=0.0127x elapsed=0:05:06.06    \nframe=  235 fps=0.8 q=24.2 size=    1280KiB time=00:00:03.88 bitrate=2700.3kbits/s speed=0.0127x elapsed=0:05:06.58    \nframe=  236 fps=0.8 q=28.3 size=    1280KiB time=00:00:03.90 bitrate=2688.7kbits/s speed=0.0127x elapsed=0:05:07.12    \nframe=  237 fps=0.8 q=31.0 size=    1280KiB time=00:00:03.91 bitrate=2677.3kbits/s speed=0.0127x elapsed=0:05:07.64    \nframe=  237 fps=0.8 q=31.0 size=    1280KiB time=00:00:03.91 bitrate=2677.3kbits/s speed=0.0127x elapsed=0:05:08.17    \nframe=  237 fps=0.8 q=31.0 size=    1280KiB time=00:00:03.91 bitrate=2677.3kbits/s speed=0.0127x elapsed=0:05:08.69    \nframe=  237 fps=0.8 q=31.0 size=    1280KiB time=00:00:03.91 bitrate=2677.3kbits/s speed=0.0127x elapsed=0:05:09.21    \nframe=  239 fps=0.8 q=25.0 size=    1280KiB time=00:00:03.95 bitrate=2654.7kbits/s speed=0.0128x elapsed=0:05:09.72    \nframe=  240 fps=0.8 q=28.3 size=    1280KiB time=00:00:03.96 bitrate=2643.6kbits/s speed=0.0128x elapsed=0:05:10.24    \nframe=  241 fps=0.8 q=30.7 size=    1280KiB time=00:00:03.98 bitrate=2632.5kbits/s speed=0.0128x elapsed=0:05:10.75    \nframe=  241 fps=0.8 q=30.7 size=    1280KiB time=00:00:03.98 bitrate=2632.5kbits/s speed=0.0128x elapsed=0:05:11.27    \nframe=  241 fps=0.8 q=30.7 size=    1280KiB time=00:00:03.98 bitrate=2632.5kbits/s speed=0.0128x elapsed=0:05:11.78    \nframe=  242 fps=0.8 q=30.8 size=    1280KiB time=00:00:04.00 bitrate=2621.5kbits/s speed=0.0128x elapsed=0:05:12.30    \nframe=  243 fps=0.8 q=24.9 size=    1280KiB time=00:00:04.01 bitrate=2610.7kbits/s speed=0.0128x elapsed=0:05:12.82    \nframe=  244 fps=0.8 q=28.2 size=    1280KiB time=00:00:04.03 bitrate=2599.9kbits/s speed=0.0129x elapsed=0:05:13.34    \nframe=  244 fps=0.8 q=28.2 size=    1280KiB time=00:00:04.03 bitrate=2599.9kbits/s speed=0.0129x elapsed=0:05:13.86    \nframe=  245 fps=0.8 q=30.8 size=    1280KiB time=00:00:04.05 bitrate=2589.2kbits/s speed=0.0129x elapsed=0:05:14.38    \nframe=  246 fps=0.8 q=30.8 size=    1280KiB time=00:00:04.06 bitrate=2578.6kbits/s speed=0.0129x elapsed=0:05:14.90    \nframe=  246 fps=0.8 q=30.8 size=    1280KiB time=00:00:04.06 bitrate=2578.6kbits/s speed=0.0129x elapsed=0:05:15.42    \nframe=  247 fps=0.8 q=24.2 size=    1280KiB time=00:00:04.08 bitrate=2568.0kbits/s speed=0.0129x elapsed=0:05:15.94    \nframe=  247 fps=0.8 q=24.2 size=    1280KiB time=00:00:04.08 bitrate=2568.0kbits/s speed=0.0129x elapsed=0:05:16.47    \nframe=  248 fps=0.8 q=28.5 size=    1280KiB time=00:00:04.10 bitrate=2557.6kbits/s speed=0.0129x elapsed=0:05:16.98    \nframe=  248 fps=0.8 q=28.5 size=    1280KiB time=00:00:04.10 bitrate=2557.6kbits/s speed=0.0129x elapsed=0:05:17.52    \nframe=  250 fps=0.8 q=30.8 size=    1280KiB time=00:00:04.13 bitrate=2537.0kbits/s speed=0.013x elapsed=0:05:18.03    \nframe=  251 fps=0.8 q=21.9 size=    1280KiB time=00:00:04.15 bitrate=2526.8kbits/s speed=0.013x elapsed=0:05:18.56    \nframe=  251 fps=0.8 q=21.9 size=    1280KiB time=00:00:04.15 bitrate=2526.8kbits/s speed=0.013x elapsed=0:05:19.07    \nframe=  251 fps=0.8 q=21.9 size=    1280KiB time=00:00:04.15 bitrate=2526.8kbits/s speed=0.013x elapsed=0:05:19.63    \nframe=  251 fps=0.8 q=21.9 size=    1280KiB time=00:00:04.15 bitrate=2526.8kbits/s speed=0.013x elapsed=0:05:20.25    \nframe=  252 fps=0.8 q=24.1 size=    1536KiB time=00:00:04.16 bitrate=3020.0kbits/s speed=0.013x elapsed=0:05:20.79    \nframe=  252 fps=0.8 q=24.1 size=    1536KiB time=00:00:04.16 bitrate=3020.0kbits/s speed=0.013x elapsed=0:05:21.34    \nframe=  252 fps=0.8 q=24.1 size=    1536KiB time=00:00:04.16 bitrate=3020.0kbits/s speed=0.0129x elapsed=0:05:21.88    \nframe=  252 fps=0.8 q=24.1 size=    1536KiB time=00:00:04.16 bitrate=3020.0kbits/s speed=0.0129x elapsed=0:05:22.41    \nframe=  253 fps=0.8 q=28.0 size=    1536KiB time=00:00:04.18 bitrate=3008.0kbits/s speed=0.013x elapsed=0:05:22.94    \nframe=  254 fps=0.8 q=30.7 size=    1536KiB time=00:00:04.20 bitrate=2996.0kbits/s speed=0.013x elapsed=0:05:23.45    \nframe=  254 fps=0.8 q=30.7 size=    1536KiB time=00:00:04.20 bitrate=2996.0kbits/s speed=0.013x elapsed=0:05:23.99    \nframe=  255 fps=0.8 q=30.9 size=    1536KiB time=00:00:04.21 bitrate=2984.2kbits/s speed=0.013x elapsed=0:05:24.54    \nframe=  255 fps=0.8 q=30.9 size=    1536KiB time=00:00:04.21 bitrate=2984.2kbits/s speed=0.013x elapsed=0:05:25.05    \nframe=  255 fps=0.8 q=30.9 size=    1536KiB time=00:00:04.21 bitrate=2984.2kbits/s speed=0.013x elapsed=0:05:25.58    \nframe=  256 fps=0.8 q=23.8 size=    1536KiB time=00:00:04.23 bitrate=2972.4kbits/s speed=0.013x elapsed=0:05:26.10    \nframe=  256 fps=0.8 q=23.8 size=    1536KiB time=00:00:04.23 bitrate=2972.4kbits/s speed=0.013x elapsed=0:05:26.65    \nframe=  256 fps=0.8 q=23.8 size=    1536KiB time=00:00:04.23 bitrate=2972.4kbits/s speed=0.0129x elapsed=0:05:27.19    \nframe=  257 fps=0.8 q=26.2 size=    1536KiB time=00:00:04.25 bitrate=2960.8kbits/s speed=0.013x elapsed=0:05:27.70    \nframe=  257 fps=0.8 q=26.2 size=    1536KiB time=00:00:04.25 bitrate=2960.8kbits/s speed=0.0129x elapsed=0:05:28.23    \nframe=  257 fps=0.8 q=26.2 size=    1536KiB time=00:00:04.25 bitrate=2960.8kbits/s speed=0.0129x elapsed=0:05:28.74    \nframe=  258 fps=0.8 q=30.9 size=    1536KiB time=00:00:04.26 bitrate=2949.2kbits/s speed=0.013x elapsed=0:05:29.25    \nframe=  258 fps=0.8 q=30.9 size=    1536KiB time=00:00:04.26 bitrate=2949.2kbits/s speed=0.0129x elapsed=0:05:29.78    \nframe=  259 fps=0.8 q=30.9 size=    1536KiB time=00:00:04.28 bitrate=2937.7kbits/s speed=0.013x elapsed=0:05:30.30    \nframe=  259 fps=0.8 q=30.9 size=    1536KiB time=00:00:04.28 bitrate=2937.7kbits/s speed=0.0129x elapsed=0:05:30.82    \nframe=  260 fps=0.8 q=30.8 size=    1536KiB time=00:00:04.30 bitrate=2926.3kbits/s speed=0.013x elapsed=0:05:31.35    \nframe=  260 fps=0.8 q=30.8 size=    1536KiB time=00:00:04.30 bitrate=2926.3kbits/s speed=0.013x elapsed=0:05:31.87    \nframe=  261 fps=0.8 q=24.8 size=    1536KiB time=00:00:04.31 bitrate=2915.0kbits/s speed=0.013x elapsed=0:05:32.39    \nframe=  261 fps=0.8 q=24.8 size=    1536KiB time=00:00:04.31 bitrate=2915.0kbits/s speed=0.013x elapsed=0:05:32.91    \nframe=  261 fps=0.8 q=24.8 size=    1536KiB time=00:00:04.31 bitrate=2915.0kbits/s speed=0.0129x elapsed=0:05:33.44    \nframe=  261 fps=0.8 q=24.8 size=    1536KiB time=00:00:04.31 bitrate=2915.0kbits/s speed=0.0129x elapsed=0:05:33.98    \nframe=  262 fps=0.8 q=25.7 size=    1536KiB time=00:00:04.33 bitrate=2903.8kbits/s speed=0.013x elapsed=0:05:34.51    \nframe=  263 fps=0.8 q=30.9 size=    1536KiB time=00:00:04.35 bitrate=2892.7kbits/s speed=0.013x elapsed=0:05:35.04    \nframe=  264 fps=0.8 q=30.6 size=    1536KiB time=00:00:04.36 bitrate=2881.7kbits/s speed=0.013x elapsed=0:05:35.57    \nframe=  264 fps=0.8 q=30.6 size=    1536KiB time=00:00:04.36 bitrate=2881.7kbits/s speed=0.013x elapsed=0:05:36.09    \nframe=  264 fps=0.8 q=30.6 size=    1536KiB time=00:00:04.36 bitrate=2881.7kbits/s speed=0.013x elapsed=0:05:36.61    \nframe=  265 fps=0.8 q=30.9 size=    1536KiB time=00:00:04.38 bitrate=2870.7kbits/s speed=0.013x elapsed=0:05:37.13    \nframe=  266 fps=0.8 q=24.7 size=    1536KiB time=00:00:04.40 bitrate=2859.8kbits/s speed=0.013x elapsed=0:05:37.65    \nframe=  267 fps=0.8 q=28.5 size=    1536KiB time=00:00:04.41 bitrate=2849.0kbits/s speed=0.0131x elapsed=0:05:38.17    \nframe=  267 fps=0.8 q=28.5 size=    1536KiB time=00:00:04.41 bitrate=2849.0kbits/s speed=0.013x elapsed=0:05:38.71    \nframe=  268 fps=0.8 q=30.9 size=    1536KiB time=00:00:04.43 bitrate=2838.3kbits/s speed=0.0131x elapsed=0:05:39.27    \nframe=  268 fps=0.8 q=30.9 size=    1536KiB time=00:00:04.43 bitrate=2838.3kbits/s speed=0.013x elapsed=0:05:39.82    \nframe=  268 fps=0.8 q=30.9 size=    1536KiB time=00:00:04.43 bitrate=2838.3kbits/s speed=0.013x elapsed=0:05:40.33    \nframe=  269 fps=0.8 q=30.9 size=    1536KiB time=00:00:04.45 bitrate=2827.7kbits/s speed=0.0131x elapsed=0:05:40.86    \nframe=  269 fps=0.8 q=30.9 size=    1536KiB time=00:00:04.45 bitrate=2827.7kbits/s speed=0.013x elapsed=0:05:41.41    \nframe=  269 fps=0.8 q=30.9 size=    1536KiB time=00:00:04.45 bitrate=2827.7kbits/s speed=0.013x elapsed=0:05:41.93    \nframe=  270 fps=0.8 q=25.2 size=    1536KiB time=00:00:04.46 bitrate=2817.1kbits/s speed=0.013x elapsed=0:05:42.45    \nframe=  270 fps=0.8 q=25.2 size=    1536KiB time=00:00:04.46 bitrate=2817.1kbits/s speed=0.013x elapsed=0:05:42.97    \nframe=  270 fps=0.8 q=25.2 size=    1536KiB time=00:00:04.46 bitrate=2817.1kbits/s speed=0.013x elapsed=0:05:43.48    \nframe=  271 fps=0.8 q=27.8 size=    1536KiB time=00:00:04.48 bitrate=2806.7kbits/s speed=0.013x elapsed=0:05:44.01    \nframe=  272 fps=0.8 q=30.8 size=    1536KiB time=00:00:04.50 bitrate=2796.3kbits/s speed=0.0131x elapsed=0:05:44.53    \nframe=  272 fps=0.8 q=30.8 size=    1536KiB time=00:00:04.50 bitrate=2796.3kbits/s speed=0.013x elapsed=0:05:45.04    \nframe=  273 fps=0.8 q=30.8 size=    1536KiB time=00:00:04.51 bitrate=2786.0kbits/s speed=0.0131x elapsed=0:05:45.57    \nframe=  274 fps=0.8 q=30.7 size=    1536KiB time=00:00:04.53 bitrate=2775.7kbits/s speed=0.0131x elapsed=0:05:46.08    \nframe=  274 fps=0.8 q=30.7 size=    1536KiB time=00:00:04.53 bitrate=2775.7kbits/s speed=0.0131x elapsed=0:05:46.60    \nframe=  274 fps=0.8 q=30.7 size=    1536KiB time=00:00:04.53 bitrate=2775.7kbits/s speed=0.0131x elapsed=0:05:47.13    \nframe=  275 fps=0.8 q=24.6 size=    1536KiB time=00:00:04.55 bitrate=2765.6kbits/s speed=0.0131x elapsed=0:05:47.65    \nframe=  275 fps=0.8 q=24.6 size=    1536KiB time=00:00:04.55 bitrate=2765.6kbits/s speed=0.0131x elapsed=0:05:48.19    \nframe=  276 fps=0.8 q=28.1 size=    1536KiB time=00:00:04.56 bitrate=2755.5kbits/s speed=0.0131x elapsed=0:05:48.70    \nframe=  276 fps=0.8 q=28.1 size=    1536KiB time=00:00:04.56 bitrate=2755.5kbits/s speed=0.0131x elapsed=0:05:49.22    \nframe=  277 fps=0.8 q=30.8 size=    1536KiB time=00:00:04.58 bitrate=2745.4kbits/s speed=0.0131x elapsed=0:05:49.73    \nframe=  278 fps=0.8 q=31.0 size=    1536KiB time=00:00:04.60 bitrate=2735.5kbits/s speed=0.0131x elapsed=0:05:50.26    \nframe=  278 fps=0.8 q=31.0 size=    1536KiB time=00:00:04.60 bitrate=2735.5kbits/s speed=0.0131x elapsed=0:05:50.77    \nframe=  279 fps=0.8 q=25.0 size=    1536KiB time=00:00:04.61 bitrate=2725.6kbits/s speed=0.0131x elapsed=0:05:51.30    \nframe=  280 fps=0.8 q=28.0 size=    1536KiB time=00:00:04.63 bitrate=2715.8kbits/s speed=0.0132x elapsed=0:05:51.82    \nframe=  280 fps=0.8 q=28.0 size=    1536KiB time=00:00:04.63 bitrate=2715.8kbits/s speed=0.0131x elapsed=0:05:52.34    \nframe=  281 fps=0.8 q=30.3 size=    1536KiB time=00:00:04.65 bitrate=2706.1kbits/s speed=0.0132x elapsed=0:05:52.85    \nframe=  282 fps=0.8 q=30.6 size=    1536KiB time=00:00:04.66 bitrate=2696.4kbits/s speed=0.0132x elapsed=0:05:53.36    \nframe=  282 fps=0.8 q=30.6 size=    1536KiB time=00:00:04.66 bitrate=2696.4kbits/s speed=0.0132x elapsed=0:05:53.89    \nframe=  283 fps=0.8 q=30.2 size=    1536KiB time=00:00:04.68 bitrate=2686.8kbits/s speed=0.0132x elapsed=0:05:54.41    \nframe=  283 fps=0.8 q=30.2 size=    1536KiB time=00:00:04.68 bitrate=2686.8kbits/s speed=0.0132x elapsed=0:05:54.93    \nframe=  283 fps=0.8 q=30.2 size=    1536KiB time=00:00:04.68 bitrate=2686.8kbits/s speed=0.0132x elapsed=0:05:55.44    \nframe=  284 fps=0.8 q=24.3 size=    1536KiB time=00:00:04.70 bitrate=2677.3kbits/s speed=0.0132x elapsed=0:05:55.96    \nframe=  285 fps=0.8 q=27.8 size=    1792KiB time=00:00:04.71 bitrate=3112.5kbits/s speed=0.0132x elapsed=0:05:56.47    \nframe=  285 fps=0.8 q=27.8 size=    1792KiB time=00:00:04.71 bitrate=3112.5kbits/s speed=0.0132x elapsed=0:05:57.01    \nframe=  286 fps=0.8 q=30.7 size=    1792KiB time=00:00:04.73 bitrate=3101.5kbits/s speed=0.0132x elapsed=0:05:57.54    \nframe=  286 fps=0.8 q=30.7 size=    1792KiB time=00:00:04.73 bitrate=3101.5kbits/s speed=0.0132x elapsed=0:05:58.09    \nframe=  286 fps=0.8 q=30.7 size=    1792KiB time=00:00:04.73 bitrate=3101.5kbits/s speed=0.0132x elapsed=0:05:58.62    \nframe=  286 fps=0.8 q=30.7 size=    1792KiB time=00:00:04.73 bitrate=3101.5kbits/s speed=0.0132x elapsed=0:05:59.13    \nframe=  286 fps=0.8 q=30.7 size=    1792KiB time=00:00:04.73 bitrate=3101.5kbits/s speed=0.0132x elapsed=0:05:59.65    \nframe=  286 fps=0.8 q=30.7 size=    1792KiB time=00:00:04.73 bitrate=3101.5kbits/s speed=0.0131x elapsed=0:06:00.18    \nframe=  287 fps=0.8 q=30.6 size=    1792KiB time=00:00:04.75 bitrate=3090.6kbits/s speed=0.0132x elapsed=0:06:00.71    \nframe=  287 fps=0.8 q=30.6 size=    1792KiB time=00:00:04.75 bitrate=3090.6kbits/s speed=0.0131x elapsed=0:06:01.26    \nframe=  288 fps=0.8 q=25.1 size=    1792KiB time=00:00:04.76 bitrate=3079.8kbits/s speed=0.0132x elapsed=0:06:01.80    \nframe=  289 fps=0.8 q=28.2 size=    1792KiB time=00:00:04.78 bitrate=3069.1kbits/s speed=0.0132x elapsed=0:06:02.31    \nframe=  290 fps=0.8 q=30.4 size=    1792KiB time=00:00:04.80 bitrate=3058.4kbits/s speed=0.0132x elapsed=0:06:02.84    \nframe=  291 fps=0.8 q=30.6 size=    1792KiB time=00:00:04.81 bitrate=3047.8kbits/s speed=0.0133x elapsed=0:06:03.35    \nframe=  292 fps=0.8 q=30.5 size=    1792KiB time=00:00:04.83 bitrate=3037.3kbits/s speed=0.0133x elapsed=0:06:03.86    \nframe=  292 fps=0.8 q=30.5 size=    1792KiB time=00:00:04.83 bitrate=3037.3kbits/s speed=0.0133x elapsed=0:06:04.39    \nframe=  294 fps=0.8 q=28.2 size=    1792KiB time=00:00:04.86 bitrate=3016.5kbits/s speed=0.0133x elapsed=0:06:04.90    \nframe=  295 fps=0.8 q=30.7 size=    1792KiB time=00:00:04.88 bitrate=3006.2kbits/s speed=0.0134x elapsed=0:06:05.41    \nframe=  296 fps=0.8 q=30.9 size=    1792KiB time=00:00:04.90 bitrate=2996.0kbits/s speed=0.0134x elapsed=0:06:05.93    \nframe=  297 fps=0.8 q=27.7 size=    1792KiB time=00:00:04.91 bitrate=2985.8kbits/s speed=0.0134x elapsed=0:06:06.44    \nframe=  298 fps=0.8 q=27.9 size=    1792KiB time=00:00:04.93 bitrate=2975.8kbits/s speed=0.0134x elapsed=0:06:06.97    \n[mp4 @ 00000293b1bc1200] Starting second pass: moving the moov atom to the beginning of the file\n[out#0/mp4 @ 00000293b1bbabc0] video:1898KiB audio:0KiB subtitle:0KiB other streams:0KiB global headers:2KiB muxing overhead: 0.362399%\nframe=  300 fps=0.8 q=30.9 Lsize=    1904KiB time=00:00:04.96 bitrate=3141.3kbits/s speed=0.0135x elapsed=0:06:07.46    \nx265 [info]: frame I:      2, Avg QP:27.49  kb/s: 10236.96\nx265 [info]: frame P:     67, Avg QP:24.25  kb/s: 7487.58 \nx265 [info]: frame B:    231, Avg QP:29.45  kb/s: 1774.89 \nx265 [info]: Weighted P-Frames: Y:0.0% UV:0.0%\n\nencoded 300 frames in 367.26s (0.82 fps), 3107.14 kb/s, Avg QP:28.27\n",
  "seconds": 367.7000036239624,
  "probe_out": {}
}